<svg width="221" height="60" viewBox="0 0 221 60" fill="none" xmlns="http://www.w3.org/2000/svg">
<g clip-path="url(#clip0_220_1559)">
<path opacity="0.949" fill-rule="evenodd" clip-rule="evenodd" d="M29.1001 -0.100098C29.6335 -0.100098 30.1666 -0.100098 30.7001 -0.100098C31.0273 0.14969 31.2606 0.483022 31.4 0.899902C31.5335 3.6999 31.5335 6.4999 31.4 9.2999C30.5549 10.5365 29.6216 10.6032 28.6 9.4999C28.4666 6.4999 28.4666 3.4999 28.6 0.499902C28.809 0.325214 28.9757 0.125215 29.1001 -0.100098Z" fill="white"/>
<path opacity="0.922" fill-rule="evenodd" clip-rule="evenodd" d="M43.9 3.5C45.3262 3.56022 45.8928 4.29356 45.6 5.7C44.26 7.94088 42.96 10.2076 41.7 12.5C40.8904 13.261 40.0904 13.261 39.3 12.5C38.9766 12.0737 38.8766 11.607 39 11.1C40.2666 8.83334 41.5334 6.56666 42.8 4.3C43.1 3.90626 43.4666 3.6396 43.9 3.5Z" fill="white"/>
<path opacity="0.919" fill-rule="evenodd" clip-rule="evenodd" d="M14.9 3.69996C15.4374 3.66714 15.9708 3.70048 16.5 3.79996C18.0087 6.11674 19.442 8.4834 20.8 10.9C21.0682 12.4312 20.435 13.1312 18.9 13C18.3333 12.7 17.9 12.2666 17.6 11.7C16.4666 9.69995 15.3333 7.69996 14.2 5.69996C14.0409 4.88676 14.2743 4.22008 14.9 3.69996Z" fill="white"/>
<path opacity="0.974" fill-rule="evenodd" clip-rule="evenodd" d="M28.1001 12.7001C36.2337 12.3145 42.1337 15.7145 45.8001 22.9001C48.9555 31.5151 46.9889 38.6817 39.9001 44.4001C32.7151 48.7241 25.7151 48.4573 18.9001 43.6001C12.8312 38.0247 11.1312 31.3247 13.8001 23.5001C16.661 17.3349 21.4277 13.7349 28.1001 12.7001ZM29.7001 18.5001C30.3123 18.489 30.7457 18.7556 31.0001 19.3001C31.1335 21.5001 31.1335 23.7001 31.0001 25.9001C30.2031 26.9723 29.4699 26.9057 28.8001 25.7001C28.6667 23.6335 28.6667 21.5667 28.8001 19.5001C29.0051 19.0627 29.3051 18.7294 29.7001 18.5001ZM26.9001 21.5001C27.1303 22.5301 27.1635 23.5969 27.0001 24.7001C24.2111 26.5503 23.3445 29.0835 24.4001 32.3001C26.2171 35.5905 28.9171 36.6239 32.5001 35.4001C35.1731 33.9541 36.2731 31.7207 35.8001 28.7001C35.3697 26.9707 34.4031 25.6373 32.9001 24.7001C32.6675 23.6397 32.6343 22.5729 32.8001 21.5001C37.8441 23.8549 39.6441 27.7217 38.2001 33.1001C35.7627 37.9353 31.9295 39.6353 26.7001 38.2001C21.9349 35.8353 20.2349 32.0687 21.6001 26.9001C22.1085 25.7271 22.7751 24.6603 23.6001 23.7001C24.6267 22.8373 25.7267 22.1039 26.9001 21.5001Z" fill="white"/>
<path opacity="0.92" fill-rule="evenodd" clip-rule="evenodd" d="M54.3 14.1001C56.2632 14.293 56.7298 15.2263 55.7 16.9001C53.466 18.2507 51.1992 19.5507 48.9 20.8001C47.1902 20.9553 46.5568 20.1887 47 18.5001C49.3962 16.9528 51.8296 15.4862 54.3 14.1001Z" fill="white"/>
<path opacity="0.924" fill-rule="evenodd" clip-rule="evenodd" d="M4.30004 14.3001C4.8375 14.2672 5.37084 14.3006 5.90004 14.4001C8.03338 15.6001 10.1667 16.8001 12.3 18.0001C13.3993 19.0299 13.3326 19.9633 12.1 20.8001C11.7 20.9335 11.3 20.9335 10.9 20.8001C8.50098 19.5343 6.16766 18.1676 3.90004 16.7001C3.39684 15.8054 3.53016 15.0054 4.30004 14.3001Z" fill="white"/>
<path opacity="0.948" fill-rule="evenodd" clip-rule="evenodd" d="M-0.0999756 30.7001C-0.0999756 30.1666 -0.0999756 29.6335 -0.0999756 29.1001C0.125337 28.9757 0.325336 28.809 0.500024 28.6C3.50002 28.4666 6.50002 28.4666 9.50002 28.6C10.5801 29.6136 10.5135 30.547 9.30002 31.4C6.50002 31.5335 3.70002 31.5335 0.900025 31.4C0.483144 31.2606 0.149812 31.0273 -0.0999756 30.7001Z" fill="white"/>
<path opacity="0.95" fill-rule="evenodd" clip-rule="evenodd" d="M59.8999 29.1001C59.8999 29.7 59.8999 30.3001 59.8999 30.9C59.6633 31.1009 59.3967 31.2677 59.0999 31.4C56.2999 31.5335 53.4999 31.5335 50.6999 31.4C49.5245 30.6393 49.3911 29.7059 50.2999 28.6C53.2999 28.4666 56.2999 28.4666 59.2999 28.6C59.5381 28.7396 59.7381 28.9063 59.8999 29.1001Z" fill="white"/>
<path opacity="0.921" fill-rule="evenodd" clip-rule="evenodd" d="M11.3 38.8999C13.0572 39.3137 13.4572 40.2803 12.5 41.7999C10.2674 43.0161 8.06737 44.2827 5.90003 45.5999C3.72387 45.8237 3.12387 44.9571 4.10003 42.9999C6.48643 41.5745 8.88643 40.2077 11.3 38.8999Z" fill="white"/>
<path opacity="0.916" fill-rule="evenodd" clip-rule="evenodd" d="M47.9 38.9C48.5588 38.8518 49.1588 39.0184 49.7 39.4C51.734 40.6504 53.8006 41.8504 55.9 43C56.5548 44.0738 56.3548 44.9404 55.3 45.6C54.9666 45.7334 54.6334 45.7334 54.3 45.6C51.7844 44.2928 49.351 42.8594 47 41.3C46.6618 40.2262 46.9618 39.4262 47.9 38.9Z" fill="white"/>
<path opacity="0.918" fill-rule="evenodd" clip-rule="evenodd" d="M18.7 46.9001C20.466 46.6325 21.166 47.3659 20.8 49.1001C19.4828 51.2675 18.2161 53.4675 17 55.7001C15.5634 56.7219 14.5968 56.3887 14.1 54.7001C15.4074 51.9355 16.9407 49.3355 18.7 46.9001Z" fill="white"/>
<path opacity="0.924" fill-rule="evenodd" clip-rule="evenodd" d="M39.7 46.9001C40.6446 46.7107 41.4112 46.9773 42 47.7001C43.2 49.8335 44.4 51.9667 45.6 54.1001C45.8652 55.6343 45.2318 56.3343 43.7 56.2001C43.3428 56.0431 43.0428 55.8099 42.8 55.5001C41.6 53.3667 40.4 51.2335 39.2 49.1001C38.9624 48.2519 39.129 47.5185 39.7 46.9001Z" fill="white"/>
<path opacity="0.951" fill-rule="evenodd" clip-rule="evenodd" d="M30.9 59.8999C30.3001 59.8999 29.7 59.8999 29.1001 59.8999C28.9063 59.7381 28.7396 59.5381 28.6 59.2999C28.4666 56.2999 28.4666 53.2999 28.6 50.2999C29.7059 49.3911 30.6393 49.5245 31.4 50.6999C31.5335 53.4999 31.5335 56.2999 31.4 59.0999C31.2677 59.3967 31.1009 59.6633 30.9 59.8999Z" fill="white"/>
</g>
<path d="M75.3026 25H72.4901L77.6108 10.4545H80.8636L85.9915 25H83.179L79.294 13.4375H79.1804L75.3026 25ZM75.3949 19.2969H83.0653V21.4134H75.3949V19.2969ZM93.1825 14.0909V16.0795H86.7337V14.0909H93.1825ZM88.3459 25V13.0611C88.3459 12.3272 88.4974 11.7164 88.8004 11.2287C89.1082 10.741 89.5201 10.3764 90.0362 10.1349C90.5523 9.89347 91.1252 9.77273 91.755 9.77273C92.2 9.77273 92.5954 9.80824 92.9411 9.87926C93.2867 9.95028 93.5424 10.0142 93.7081 10.071L93.1967 12.0597C93.0878 12.0265 92.9505 11.9934 92.7848 11.9602C92.6191 11.9223 92.4344 11.9034 92.2308 11.9034C91.7526 11.9034 91.4141 12.0194 91.2152 12.2514C91.0211 12.4787 90.924 12.8054 90.924 13.2315V25H88.3459ZM100.722 14.0909V16.0795H94.2727V14.0909H100.722ZM95.8849 25V13.0611C95.8849 12.3272 96.0365 11.7164 96.3395 11.2287C96.6473 10.741 97.0592 10.3764 97.5753 10.1349C98.0914 9.89347 98.6643 9.77273 99.294 9.77273C99.7391 9.77273 100.134 9.80824 100.48 9.87926C100.826 9.95028 101.081 10.0142 101.247 10.071L100.736 12.0597C100.627 12.0265 100.49 11.9934 100.324 11.9602C100.158 11.9223 99.9735 11.9034 99.7699 11.9034C99.2917 11.9034 98.9531 12.0194 98.7543 12.2514C98.5601 12.4787 98.4631 12.8054 98.4631 13.2315V25H95.8849ZM107.083 25.2131C106.018 25.2131 105.095 24.9787 104.314 24.5099C103.532 24.0412 102.926 23.3854 102.495 22.5426C102.069 21.6998 101.856 20.715 101.856 19.5881C101.856 18.4612 102.069 17.474 102.495 16.6264C102.926 15.7789 103.532 15.1207 104.314 14.652C105.095 14.1832 106.018 13.9489 107.083 13.9489C108.149 13.9489 109.072 14.1832 109.853 14.652C110.635 15.1207 111.238 15.7789 111.664 16.6264C112.095 17.474 112.311 18.4612 112.311 19.5881C112.311 20.715 112.095 21.6998 111.664 22.5426C111.238 23.3854 110.635 24.0412 109.853 24.5099C109.072 24.9787 108.149 25.2131 107.083 25.2131ZM107.098 23.1534C107.675 23.1534 108.158 22.9948 108.547 22.6776C108.935 22.3556 109.224 21.9247 109.413 21.3849C109.607 20.8452 109.704 20.2438 109.704 19.581C109.704 18.9134 109.607 18.3097 109.413 17.7699C109.224 17.2254 108.935 16.7921 108.547 16.4702C108.158 16.1482 107.675 15.9872 107.098 15.9872C106.506 15.9872 106.013 16.1482 105.62 16.4702C105.232 16.7921 104.941 17.2254 104.747 17.7699C104.557 18.3097 104.463 18.9134 104.463 19.581C104.463 20.2438 104.557 20.8452 104.747 21.3849C104.941 21.9247 105.232 22.3556 105.62 22.6776C106.013 22.9948 106.506 23.1534 107.098 23.1534ZM114.493 25V14.0909H116.986V15.9091H117.099C117.298 15.2794 117.639 14.794 118.122 14.4531C118.61 14.1075 119.166 13.9347 119.791 13.9347C119.933 13.9347 120.092 13.9418 120.267 13.956C120.447 13.9654 120.596 13.982 120.714 14.0057V16.3707C120.606 16.3329 120.433 16.2997 120.196 16.2713C119.964 16.2382 119.739 16.2216 119.521 16.2216C119.053 16.2216 118.631 16.3234 118.257 16.527C117.888 16.7259 117.597 17.0028 117.384 17.358C117.17 17.7131 117.064 18.1226 117.064 18.5866V25H114.493ZM126.022 25.1918C125.165 25.1918 124.398 24.9716 123.721 24.5312C123.043 24.0909 122.508 23.4517 122.115 22.6136C121.722 21.7756 121.526 20.7576 121.526 19.5597C121.526 18.3475 121.725 17.3248 122.123 16.4915C122.525 15.6534 123.067 15.0213 123.749 14.5952C124.431 14.1643 125.191 13.9489 126.029 13.9489C126.668 13.9489 127.194 14.0578 127.605 14.2756C128.017 14.4886 128.344 14.7467 128.586 15.0497C128.827 15.348 129.014 15.6297 129.147 15.8949H129.253V10.4545H131.831V25H129.303V23.2812H129.147C129.014 23.5464 128.822 23.8281 128.571 24.1264C128.32 24.42 127.989 24.6709 127.577 24.8793C127.165 25.0876 126.647 25.1918 126.022 25.1918ZM126.739 23.0824C127.283 23.0824 127.748 22.9356 128.131 22.642C128.515 22.3437 128.806 21.9295 129.005 21.3991C129.203 20.8688 129.303 20.2509 129.303 19.5455C129.303 18.84 129.203 18.2268 129.005 17.706C128.81 17.1851 128.522 16.7803 128.138 16.4915C127.759 16.2027 127.293 16.0582 126.739 16.0582C126.166 16.0582 125.688 16.2074 125.304 16.5057C124.921 16.804 124.632 17.2159 124.438 17.7415C124.244 18.267 124.147 18.8684 124.147 19.5455C124.147 20.2273 124.244 20.8357 124.438 21.3707C124.637 21.901 124.928 22.3201 125.311 22.6278C125.7 22.9309 126.176 23.0824 126.739 23.0824ZM137.71 25.2202C137.019 25.2202 136.396 25.0971 135.842 24.8509C135.293 24.5999 134.857 24.2306 134.536 23.7429C134.218 23.2552 134.06 22.6539 134.06 21.9389C134.06 21.3234 134.173 20.8144 134.401 20.4119C134.628 20.0095 134.938 19.6875 135.331 19.446C135.724 19.2045 136.167 19.0223 136.659 18.8991C137.156 18.7713 137.67 18.679 138.2 18.6222C138.839 18.5559 139.358 18.4967 139.756 18.4446C140.153 18.3878 140.442 18.3026 140.622 18.1889C140.807 18.0705 140.899 17.8883 140.899 17.642V17.5994C140.899 17.0644 140.741 16.6501 140.423 16.3565C140.106 16.063 139.649 15.9162 139.053 15.9162C138.423 15.9162 137.923 16.0535 137.554 16.3281C137.189 16.6027 136.943 16.9271 136.815 17.3011L134.415 16.9602C134.604 16.2973 134.917 15.7434 135.352 15.2983C135.788 14.8485 136.321 14.5123 136.95 14.2898C137.58 14.0625 138.276 13.9489 139.038 13.9489C139.564 13.9489 140.087 14.0104 140.608 14.1335C141.129 14.2566 141.605 14.4602 142.036 14.7443C142.466 15.0237 142.812 15.4048 143.072 15.8878C143.338 16.3707 143.47 16.9744 143.47 17.6989V25H140.999V23.5014H140.913C140.757 23.8045 140.537 24.0885 140.253 24.3537C139.973 24.6141 139.621 24.8248 139.195 24.9858C138.773 25.142 138.278 25.2202 137.71 25.2202ZM138.378 23.331C138.894 23.331 139.341 23.2292 139.72 23.0256C140.099 22.8172 140.39 22.5426 140.594 22.2017C140.802 21.8608 140.906 21.4891 140.906 21.0866V19.8011C140.826 19.8674 140.688 19.929 140.494 19.9858C140.305 20.0426 140.092 20.0923 139.855 20.1349C139.618 20.1776 139.384 20.2154 139.152 20.2486C138.92 20.2817 138.719 20.3101 138.548 20.3338C138.165 20.3859 137.821 20.4711 137.518 20.5895C137.215 20.7079 136.976 20.8736 136.801 21.0866C136.626 21.295 136.538 21.5649 136.538 21.8963C136.538 22.3698 136.711 22.7273 137.057 22.9688C137.402 23.2102 137.843 23.331 138.378 23.331ZM146.169 25V10.4545H148.74V15.8949H148.847C148.979 15.6297 149.166 15.348 149.408 15.0497C149.649 14.7467 149.976 14.4886 150.388 14.2756C150.8 14.0578 151.325 13.9489 151.964 13.9489C152.807 13.9489 153.567 14.1643 154.244 14.5952C154.926 15.0213 155.466 15.6534 155.864 16.4915C156.266 17.3248 156.467 18.3475 156.467 19.5597C156.467 20.7576 156.271 21.7756 155.878 22.6136C155.485 23.4517 154.95 24.0909 154.273 24.5312C153.596 24.9716 152.829 25.1918 151.972 25.1918C151.347 25.1918 150.828 25.0876 150.416 24.8793C150.004 24.6709 149.673 24.42 149.422 24.1264C149.176 23.8281 148.984 23.5464 148.847 23.2812H148.697V25H146.169ZM148.69 19.5455C148.69 20.2509 148.79 20.8688 148.989 21.3991C149.192 21.9295 149.483 22.3437 149.862 22.642C150.246 22.9356 150.71 23.0824 151.254 23.0824C151.822 23.0824 152.298 22.9309 152.682 22.6278C153.065 22.3201 153.354 21.901 153.548 21.3707C153.747 20.8357 153.847 20.2273 153.847 19.5455C153.847 18.8684 153.75 18.267 153.555 17.7415C153.361 17.2159 153.072 16.804 152.689 16.5057C152.305 16.2074 151.827 16.0582 151.254 16.0582C150.705 16.0582 150.239 16.2027 149.855 16.4915C149.472 16.7803 149.18 17.1851 148.982 17.706C148.787 18.2268 148.69 18.84 148.69 19.5455ZM161.224 10.4545V25H158.653V10.4545H161.224ZM168.697 25.2131C167.604 25.2131 166.659 24.9858 165.864 24.5312C165.073 24.072 164.464 23.4233 164.038 22.5852C163.612 21.7424 163.399 20.7505 163.399 19.6094C163.399 18.4872 163.612 17.5024 164.038 16.6548C164.469 15.8026 165.071 15.1397 165.842 14.6662C166.614 14.188 167.521 13.9489 168.562 13.9489C169.235 13.9489 169.869 14.0578 170.466 14.2756C171.067 14.4886 171.598 14.8201 172.057 15.2699C172.521 15.7197 172.885 16.2926 173.151 16.9886C173.416 17.6799 173.548 18.5038 173.548 19.4602V20.2486H164.607V18.5156H171.084C171.079 18.0232 170.973 17.5852 170.764 17.2017C170.556 16.8134 170.265 16.508 169.891 16.2855C169.521 16.063 169.09 15.9517 168.598 15.9517C168.072 15.9517 167.611 16.0795 167.213 16.3352C166.815 16.5862 166.505 16.9176 166.283 17.3295C166.065 17.7367 165.954 18.1842 165.949 18.6719V20.1847C165.949 20.8191 166.065 21.3636 166.297 21.8182C166.529 22.268 166.853 22.6136 167.27 22.8551C167.687 23.0919 168.174 23.2102 168.733 23.2102C169.107 23.2102 169.446 23.1581 169.749 23.054C170.052 22.9451 170.314 22.7865 170.537 22.5781C170.759 22.3698 170.928 22.1117 171.041 21.804L173.442 22.0739C173.29 22.7083 173.001 23.2623 172.575 23.7358C172.154 24.2045 171.614 24.5691 170.956 24.8295C170.298 25.0852 169.545 25.2131 168.697 25.2131ZM183.824 25.2202C183.132 25.2202 182.51 25.0971 181.956 24.8509C181.406 24.5999 180.971 24.2306 180.649 23.7429C180.332 23.2552 180.173 22.6539 180.173 21.9389C180.173 21.3234 180.287 20.8144 180.514 20.4119C180.741 20.0095 181.051 19.6875 181.444 19.446C181.837 19.2045 182.28 19.0223 182.772 18.8991C183.27 18.7713 183.783 18.679 184.314 18.6222C184.953 18.5559 185.471 18.4967 185.869 18.4446C186.267 18.3878 186.556 18.3026 186.735 18.1889C186.92 18.0705 187.012 17.8883 187.012 17.642V17.5994C187.012 17.0644 186.854 16.6501 186.537 16.3565C186.219 16.063 185.762 15.9162 185.166 15.9162C184.536 15.9162 184.037 16.0535 183.667 16.3281C183.303 16.6027 183.056 16.9271 182.929 17.3011L180.528 16.9602C180.717 16.2973 181.03 15.7434 181.466 15.2983C181.901 14.8485 182.434 14.5123 183.064 14.2898C183.693 14.0625 184.389 13.9489 185.152 13.9489C185.677 13.9489 186.2 14.0104 186.721 14.1335C187.242 14.2566 187.718 14.4602 188.149 14.7443C188.58 15.0237 188.925 15.4048 189.186 15.8878C189.451 16.3707 189.583 16.9744 189.583 17.6989V25H187.112V23.5014H187.027C186.87 23.8045 186.65 24.0885 186.366 24.3537C186.087 24.6141 185.734 24.8248 185.308 24.9858C184.886 25.142 184.392 25.2202 183.824 25.2202ZM184.491 23.331C185.007 23.331 185.455 23.2292 185.833 23.0256C186.212 22.8172 186.503 22.5426 186.707 22.2017C186.915 21.8608 187.02 21.4891 187.02 21.0866V19.8011C186.939 19.8674 186.802 19.929 186.608 19.9858C186.418 20.0426 186.205 20.0923 185.968 20.1349C185.732 20.1776 185.497 20.2154 185.265 20.2486C185.033 20.2817 184.832 20.3101 184.662 20.3338C184.278 20.3859 183.935 20.4711 183.632 20.5895C183.329 20.7079 183.09 20.8736 182.914 21.0866C182.739 21.295 182.652 21.5649 182.652 21.8963C182.652 22.3698 182.824 22.7273 183.17 22.9688C183.516 23.2102 183.956 23.331 184.491 23.331ZM194.74 18.608V25H192.169V14.0909H194.626V15.9446H194.754C195.005 15.3338 195.405 14.8485 195.954 14.4886C196.508 14.1288 197.192 13.9489 198.007 13.9489C198.76 13.9489 199.415 14.1098 199.974 14.4318C200.538 14.7538 200.973 15.2202 201.281 15.831C201.593 16.4418 201.747 17.1828 201.743 18.054V25H199.172V18.4517C199.172 17.7225 198.982 17.152 198.603 16.7401C198.229 16.3281 197.711 16.1222 197.048 16.1222C196.598 16.1222 196.198 16.2216 195.848 16.4205C195.502 16.6146 195.23 16.8963 195.031 17.2656C194.837 17.6349 194.74 18.0824 194.74 18.608ZM208.404 25.1918C207.547 25.1918 206.78 24.9716 206.103 24.5312C205.426 24.0909 204.891 23.4517 204.498 22.6136C204.105 21.7756 203.909 20.7576 203.909 19.5597C203.909 18.3475 204.108 17.3248 204.505 16.4915C204.908 15.6534 205.45 15.0213 206.132 14.5952C206.814 14.1643 207.574 13.9489 208.412 13.9489C209.051 13.9489 209.576 14.0578 209.988 14.2756C210.4 14.4886 210.727 14.7467 210.968 15.0497C211.21 15.348 211.397 15.6297 211.529 15.8949H211.636V10.4545H214.214V25H211.686V23.2812H211.529C211.397 23.5464 211.205 23.8281 210.954 24.1264C210.703 24.42 210.372 24.6709 209.96 24.8793C209.548 25.0876 209.029 25.1918 208.404 25.1918ZM209.122 23.0824C209.666 23.0824 210.13 22.9356 210.514 22.642C210.897 22.3437 211.189 21.9295 211.387 21.3991C211.586 20.8688 211.686 20.2509 211.686 19.5455C211.686 18.84 211.586 18.2268 211.387 17.706C211.193 17.1851 210.904 16.7803 210.521 16.4915C210.142 16.2027 209.676 16.0582 209.122 16.0582C208.549 16.0582 208.071 16.2074 207.687 16.5057C207.304 16.804 207.015 17.2159 206.821 17.7415C206.627 18.267 206.529 18.8684 206.529 19.5455C206.529 20.2273 206.627 20.8357 206.821 21.3707C207.02 21.901 207.311 22.3201 207.694 22.6278C208.083 22.9309 208.558 23.0824 209.122 23.0824ZM85.8849 39.3622H83.2287C83.1529 38.9266 83.0133 38.5407 82.8097 38.2045C82.6061 37.8636 82.3527 37.5748 82.0497 37.3381C81.7467 37.1013 81.401 36.9238 81.0128 36.8054C80.6293 36.6823 80.215 36.6207 79.7699 36.6207C78.9792 36.6207 78.2784 36.8196 77.6676 37.2173C77.0568 37.6103 76.5786 38.188 76.233 38.9503C75.8873 39.7079 75.7145 40.6335 75.7145 41.7273C75.7145 42.84 75.8873 43.7775 76.233 44.5398C76.5833 45.2973 77.0616 45.8703 77.6676 46.2585C78.2784 46.642 78.9768 46.8338 79.7628 46.8338C80.1984 46.8338 80.6056 46.777 80.9844 46.6634C81.3679 46.545 81.7112 46.3722 82.0142 46.1449C82.322 45.9176 82.58 45.6383 82.7884 45.3068C83.0014 44.9754 83.1482 44.5966 83.2287 44.1705L85.8849 44.1847C85.7855 44.8759 85.5701 45.5246 85.2386 46.1307C84.9119 46.7367 84.4834 47.2718 83.9531 47.7358C83.4228 48.1951 82.8026 48.5549 82.0923 48.8153C81.3821 49.071 80.5938 49.1989 79.7273 49.1989C78.4489 49.1989 77.3078 48.9029 76.304 48.3111C75.3002 47.7192 74.5095 46.8646 73.9318 45.7472C73.3542 44.6297 73.0653 43.2898 73.0653 41.7273C73.0653 40.16 73.3565 38.8201 73.9389 37.7074C74.5213 36.59 75.3144 35.7353 76.3182 35.1435C77.322 34.5516 78.4583 34.2557 79.7273 34.2557C80.5369 34.2557 81.2898 34.3693 81.9858 34.5966C82.6818 34.8239 83.3021 35.1577 83.8466 35.598C84.3911 36.0336 84.8385 36.5687 85.1889 37.2031C85.544 37.8329 85.776 38.5526 85.8849 39.3622ZM90.7553 34.4545V49H88.1843V34.4545H90.7553ZM98.2287 49.2131C97.1349 49.2131 96.1903 48.9858 95.3949 48.5312C94.6042 48.072 93.9957 47.4233 93.5696 46.5852C93.1435 45.7424 92.9304 44.7505 92.9304 43.6094C92.9304 42.4872 93.1435 41.5024 93.5696 40.6548C94.0005 39.8026 94.6018 39.1397 95.3736 38.6662C96.1454 38.188 97.0521 37.9489 98.0938 37.9489C98.7661 37.9489 99.4006 38.0578 99.9972 38.2756C100.598 38.4886 101.129 38.8201 101.588 39.2699C102.052 39.7197 102.417 40.2926 102.682 40.9886C102.947 41.6799 103.08 42.5038 103.08 43.4602V44.2486H94.1378V42.5156H100.615C100.61 42.0232 100.504 41.5852 100.295 41.2017C100.087 40.8134 99.7959 40.508 99.4219 40.2855C99.0526 40.063 98.6217 39.9517 98.1293 39.9517C97.6037 39.9517 97.142 40.0795 96.7443 40.3352C96.3466 40.5862 96.0365 40.9176 95.8139 41.3295C95.5961 41.7367 95.4848 42.1842 95.4801 42.6719V44.1847C95.4801 44.8191 95.5961 45.3636 95.8281 45.8182C96.0601 46.268 96.3845 46.6136 96.8011 46.8551C97.2178 47.0919 97.7055 47.2102 98.2642 47.2102C98.6383 47.2102 98.9768 47.1581 99.2798 47.054C99.5829 46.9451 99.8456 46.7865 100.068 46.5781C100.291 46.3698 100.459 46.1117 100.572 45.804L102.973 46.0739C102.821 46.7083 102.533 47.2623 102.107 47.7358C101.685 48.2045 101.145 48.5691 100.487 48.8295C99.8291 49.0852 99.0762 49.2131 98.2287 49.2131ZM108.394 49.2202C107.703 49.2202 107.08 49.0971 106.526 48.8509C105.977 48.5999 105.541 48.2306 105.219 47.7429C104.902 47.2552 104.743 46.6539 104.743 45.9389C104.743 45.3234 104.857 44.8144 105.084 44.4119C105.311 44.0095 105.622 43.6875 106.015 43.446C106.408 43.2045 106.85 43.0223 107.343 42.8991C107.84 42.7713 108.354 42.679 108.884 42.6222C109.523 42.5559 110.042 42.4967 110.439 42.4446C110.837 42.3878 111.126 42.3026 111.306 42.1889C111.49 42.0705 111.583 41.8883 111.583 41.642V41.5994C111.583 41.0644 111.424 40.6501 111.107 40.3565C110.79 40.063 110.333 39.9162 109.736 39.9162C109.106 39.9162 108.607 40.0535 108.238 40.3281C107.873 40.6027 107.627 40.9271 107.499 41.3011L105.098 40.9602C105.288 40.2973 105.6 39.7434 106.036 39.2983C106.471 38.8485 107.004 38.5123 107.634 38.2898C108.264 38.0625 108.96 37.9489 109.722 37.9489C110.248 37.9489 110.771 38.0104 111.292 38.1335C111.812 38.2566 112.288 38.4602 112.719 38.7443C113.15 39.0237 113.496 39.4048 113.756 39.8878C114.021 40.3707 114.154 40.9744 114.154 41.6989V49H111.682V47.5014H111.597C111.441 47.8045 111.221 48.0885 110.936 48.3537C110.657 48.6141 110.304 48.8248 109.878 48.9858C109.457 49.142 108.962 49.2202 108.394 49.2202ZM109.061 47.331C109.578 47.331 110.025 47.2292 110.404 47.0256C110.783 46.8172 111.074 46.5426 111.277 46.2017C111.486 45.8608 111.59 45.4891 111.59 45.0866V43.8011C111.509 43.8674 111.372 43.929 111.178 43.9858C110.989 44.0426 110.775 44.0923 110.539 44.1349C110.302 44.1776 110.068 44.2154 109.836 44.2486C109.604 44.2817 109.402 44.3101 109.232 44.3338C108.848 44.3859 108.505 44.4711 108.202 44.5895C107.899 44.7079 107.66 44.8736 107.485 45.0866C107.31 45.295 107.222 45.5649 107.222 45.8963C107.222 46.3698 107.395 46.7273 107.74 46.9688C108.086 47.2102 108.526 47.331 109.061 47.331ZM119.31 42.608V49H116.739V38.0909H119.196V39.9446H119.324C119.575 39.3338 119.975 38.8485 120.525 38.4886C121.078 38.1288 121.763 37.9489 122.577 37.9489C123.33 37.9489 123.986 38.1098 124.544 38.4318C125.108 38.7538 125.543 39.2202 125.851 39.831C126.164 40.4418 126.318 41.1828 126.313 42.054V49H123.742V42.4517C123.742 41.7225 123.552 41.152 123.174 40.7401C122.8 40.3281 122.281 40.1222 121.618 40.1222C121.168 40.1222 120.768 40.2216 120.418 40.4205C120.072 40.6146 119.8 40.8963 119.601 41.2656C119.407 41.6349 119.31 42.0824 119.31 42.608ZM134.001 49V34.4545H143.461V36.6634H136.636V40.6122H142.971V42.821H136.636V46.7912H143.518V49H134.001ZM148.607 42.608V49H146.036V38.0909H148.493V39.9446H148.621C148.872 39.3338 149.272 38.8485 149.821 38.4886C150.375 38.1288 151.06 37.9489 151.874 37.9489C152.627 37.9489 153.283 38.1098 153.841 38.4318C154.405 38.7538 154.84 39.2202 155.148 39.831C155.461 40.4418 155.614 41.1828 155.61 42.054V49H153.039V42.4517C153.039 41.7225 152.849 41.152 152.471 40.7401C152.096 40.3281 151.578 40.1222 150.915 40.1222C150.465 40.1222 150.065 40.2216 149.715 40.4205C149.369 40.6146 149.097 40.8963 148.898 41.2656C148.704 41.6349 148.607 42.0824 148.607 42.608ZM163.053 49.2131C161.959 49.2131 161.015 48.9858 160.219 48.5312C159.428 48.072 158.82 47.4233 158.394 46.5852C157.968 45.7424 157.755 44.7505 157.755 43.6094C157.755 42.4872 157.968 41.5024 158.394 40.6548C158.825 39.8026 159.426 39.1397 160.198 38.6662C160.97 38.188 161.876 37.9489 162.918 37.9489C163.59 37.9489 164.225 38.0578 164.821 38.2756C165.423 38.4886 165.953 38.8201 166.412 39.2699C166.876 39.7197 167.241 40.2926 167.506 40.9886C167.771 41.6799 167.904 42.5038 167.904 43.4602V44.2486H158.962V42.5156H165.439C165.435 42.0232 165.328 41.5852 165.12 41.2017C164.911 40.8134 164.62 40.508 164.246 40.2855C163.877 40.063 163.446 39.9517 162.953 39.9517C162.428 39.9517 161.966 40.0795 161.569 40.3352C161.171 40.5862 160.861 40.9176 160.638 41.3295C160.42 41.7367 160.309 42.1842 160.304 42.6719V44.1847C160.304 44.8191 160.42 45.3636 160.652 45.8182C160.884 46.268 161.209 46.6136 161.625 46.8551C162.042 47.0919 162.53 47.2102 163.088 47.2102C163.462 47.2102 163.801 47.1581 164.104 47.054C164.407 46.9451 164.67 46.7865 164.892 46.5781C165.115 46.3698 165.283 46.1117 165.397 45.804L167.797 46.0739C167.646 46.7083 167.357 47.2623 166.931 47.7358C166.509 48.2045 165.97 48.5691 165.311 48.8295C164.653 49.0852 163.9 49.2131 163.053 49.2131ZM170.079 49V38.0909H172.572V39.9091H172.685C172.884 39.2794 173.225 38.794 173.708 38.4531C174.196 38.1075 174.752 37.9347 175.377 37.9347C175.519 37.9347 175.678 37.9418 175.853 37.956C176.033 37.9654 176.182 37.982 176.3 38.0057V40.3707C176.192 40.3329 176.019 40.2997 175.782 40.2713C175.55 40.2382 175.325 40.2216 175.107 40.2216C174.638 40.2216 174.217 40.3234 173.843 40.527C173.474 40.7259 173.183 41.0028 172.969 41.358C172.756 41.7131 172.65 42.1226 172.65 42.5866V49H170.079ZM182.304 53.3182C181.38 53.3182 180.587 53.1927 179.924 52.9418C179.261 52.6955 178.729 52.3641 178.326 51.9474C177.924 51.5308 177.645 51.0691 177.488 50.5625L179.804 50.0014C179.908 50.2145 180.059 50.4252 180.258 50.6335C180.457 50.8466 180.725 51.0218 181.061 51.1591C181.402 51.3011 181.83 51.3722 182.346 51.3722C183.075 51.3722 183.679 51.1946 184.157 50.8395C184.636 50.4891 184.875 49.9115 184.875 49.1065V47.0398H184.747C184.614 47.3049 184.42 47.5772 184.164 47.8565C183.913 48.1359 183.58 48.3703 183.163 48.5597C182.751 48.7491 182.233 48.8438 181.608 48.8438C180.77 48.8438 180.01 48.6473 179.328 48.2543C178.651 47.8565 178.111 47.2647 177.708 46.4787C177.311 45.688 177.112 44.6984 177.112 43.5099C177.112 42.312 177.311 41.3011 177.708 40.4773C178.111 39.6487 178.653 39.0213 179.335 38.5952C180.017 38.1643 180.777 37.9489 181.615 37.9489C182.254 37.9489 182.779 38.0578 183.191 38.2756C183.608 38.4886 183.94 38.7467 184.186 39.0497C184.432 39.348 184.619 39.6297 184.747 39.8949H184.889V38.0909H187.424V49.1776C187.424 50.1103 187.202 50.8821 186.757 51.4929C186.312 52.1037 185.703 52.5606 184.931 52.8636C184.16 53.1667 183.284 53.3182 182.304 53.3182ZM182.325 46.8267C182.869 46.8267 183.333 46.6941 183.717 46.429C184.1 46.1638 184.392 45.7827 184.591 45.2855C184.789 44.7884 184.889 44.1918 184.889 43.4957C184.889 42.8092 184.789 42.2079 184.591 41.6918C184.396 41.1757 184.108 40.7756 183.724 40.4915C183.345 40.2027 182.879 40.0582 182.325 40.0582C181.752 40.0582 181.274 40.2074 180.89 40.5057C180.507 40.804 180.218 41.2135 180.024 41.7344C179.83 42.2505 179.733 42.8376 179.733 43.4957C179.733 44.1634 179.83 44.7481 180.024 45.25C180.223 45.7472 180.514 46.1354 180.897 46.4148C181.286 46.6894 181.761 46.8267 182.325 46.8267ZM191.657 53.0909C191.307 53.0909 190.983 53.0625 190.684 53.0057C190.391 52.9536 190.156 52.892 189.981 52.821L190.578 50.8182C190.952 50.9271 191.286 50.9792 191.579 50.9744C191.873 50.9697 192.131 50.8774 192.353 50.6974C192.581 50.5223 192.772 50.2287 192.929 49.8168L193.149 49.2273L189.193 38.0909H191.92L194.434 46.3295H194.548L197.069 38.0909H199.804L195.436 50.321C195.232 50.8987 194.962 51.3935 194.626 51.8054C194.29 52.2221 193.878 52.5393 193.39 52.7571C192.907 52.9796 192.33 53.0909 191.657 53.0909Z" fill="white"/>
<defs>
<clipPath id="clip0_220_1559">
<rect width="60" height="60" fill="white"/>
</clipPath>
</defs>
</svg>
