<svg width="170" height="170" viewBox="0 0 170 170" fill="none" xmlns="http://www.w3.org/2000/svg">
<path d="M133.571 34.9106V124.464C133.57 125.223 133.853 125.954 134.364 126.515C134.875 127.076 135.577 127.425 136.333 127.493C137.088 127.562 137.842 127.345 138.446 126.885C139.049 126.426 139.459 125.757 139.594 125.011L139.643 124.464V42.4999H147.232C149.899 42.5 152.468 43.5028 154.429 45.3091C156.391 47.1154 157.601 49.5932 157.821 52.2506L157.857 53.1249V125.982C157.857 131.022 155.929 135.871 152.468 139.535C149.006 143.198 144.274 145.399 139.242 145.684L138.125 145.714H31.875C26.8348 145.715 21.9856 143.786 18.3221 140.325C14.6586 136.863 12.4585 132.131 12.1732 127.099L12.1428 125.982V34.9106C12.1429 32.2441 13.1456 29.6751 14.9519 27.7136C16.7583 25.7521 19.2361 24.5415 21.8935 24.3221L22.7678 24.2856H122.946C125.613 24.2857 128.182 25.2885 130.143 27.0948C132.105 28.9011 133.316 31.3789 133.535 34.0364L133.571 34.9106ZM59.1782 78.9528H44.0178C41.3513 78.9529 38.7823 79.9556 36.8208 81.7619C34.8593 83.5682 33.6487 86.046 33.4293 88.7035L33.3928 89.5778V104.732C33.3929 107.399 34.3956 109.968 36.2019 111.929C38.0083 113.891 40.4861 115.101 43.1435 115.321L44.0178 115.357H59.1782C61.8456 115.357 64.4155 114.353 66.3771 112.546C68.3388 110.738 69.5488 108.259 69.7668 105.6L69.7971 104.732V89.5778C69.7985 86.9102 68.7965 84.3397 66.99 82.3769C65.1836 80.4141 62.7049 79.2026 60.0464 78.9831L59.1782 78.9528ZM107.768 106.25H86.5178L85.8985 106.292C84.8086 106.442 83.8099 106.982 83.0869 107.811C82.364 108.64 81.9656 109.703 81.9656 110.804C81.9656 111.904 82.364 112.967 83.0869 113.796C83.8099 114.625 84.8086 115.165 85.8985 115.315L86.5178 115.357H107.768L108.387 115.315C109.477 115.165 110.476 114.625 111.199 113.796C111.922 112.967 112.32 111.904 112.32 110.804C112.32 109.703 111.922 108.64 111.199 107.811C110.476 106.982 109.477 106.442 108.387 106.292L107.768 106.25ZM44.0178 88.0599H59.1782C59.5193 88.0602 59.8504 88.1753 60.1181 88.3868C60.3858 88.5983 60.5744 88.8938 60.6535 89.2256L60.696 89.5778V104.732C60.6955 105.074 60.5794 105.406 60.3668 105.674C60.1541 105.941 59.8572 106.129 59.5242 106.207L59.1782 106.25H44.0178C43.6759 106.249 43.3441 106.133 43.0763 105.921C42.8085 105.708 42.6204 105.411 42.5425 105.078L42.5 104.732V89.5778C42.4992 89.2348 42.6146 88.9016 42.8274 88.6326C43.0401 88.3636 43.3378 88.1746 43.6717 88.0964L44.0178 88.0599ZM107.768 78.9528H86.5178L85.8985 78.9892C84.804 79.1343 83.7995 79.672 83.0719 80.5024C82.3443 81.3328 81.9432 82.3993 81.9432 83.5033C81.9432 84.6074 82.3443 85.6739 83.0719 86.5042C83.7995 87.3346 84.804 87.8724 85.8985 88.0174L86.5178 88.0599H107.768L108.387 88.0174C109.482 87.8724 110.486 87.3346 111.214 86.5042C111.941 85.6739 112.342 84.6074 112.342 83.5033C112.342 82.3993 111.941 81.3328 111.214 80.5024C110.486 79.672 109.482 79.1343 108.387 78.9892L107.768 78.9528ZM107.768 51.5889H37.9464L37.3271 51.6314C36.2372 51.7813 35.2385 52.3208 34.5155 53.15C33.7925 53.9793 33.3942 55.0423 33.3942 56.1424C33.3942 57.2426 33.7925 58.3056 34.5155 59.1348C35.2385 59.9641 36.2372 60.5035 37.3271 60.6535L37.9464 60.696H107.768L108.387 60.6535C109.477 60.5035 110.476 59.9641 111.199 59.1348C111.922 58.3056 112.32 57.2426 112.32 56.1424C112.32 55.0423 111.922 53.9793 111.199 53.15C110.476 52.3208 109.477 51.7813 108.387 51.6314L107.768 51.5889Z" fill="#4B4B4B"/>
</svg>
