<svg width="170" height="170" viewBox="0 0 170 170" fill="none" xmlns="http://www.w3.org/2000/svg">
<path d="M21.25 134.583C17.3542 134.583 14.0203 133.197 11.2483 130.426C8.4764 127.654 7.08807 124.317 7.08334 120.417V49.5834C7.08334 45.6876 8.47168 42.3537 11.2483 39.5818C14.025 36.8098 17.3589 35.4215 21.25 35.4168H92.0833C95.9792 35.4168 99.3154 36.8051 102.092 39.5818C104.869 42.3584 106.255 45.6923 106.25 49.5834V120.417C106.25 124.313 104.864 127.649 102.092 130.426C99.3201 133.202 95.9839 134.588 92.0833 134.583H21.25ZM127.5 134.583C125.493 134.583 123.812 133.903 122.457 132.543C121.101 131.183 120.421 129.502 120.417 127.5V42.5001C120.417 40.4932 121.097 38.8121 122.457 37.4568C123.817 36.1015 125.498 35.4215 127.5 35.4168C129.502 35.4121 131.186 36.0921 132.55 37.4568C133.915 38.8215 134.593 40.5026 134.583 42.5001V127.5C134.583 129.507 133.903 131.191 132.543 132.551C131.183 133.911 129.502 134.588 127.5 134.583ZM155.833 134.583C153.826 134.583 152.145 133.903 150.79 132.543C149.435 131.183 148.755 129.502 148.75 127.5V42.5001C148.75 40.4932 149.43 38.8121 150.79 37.4568C152.15 36.1015 153.831 35.4215 155.833 35.4168C157.836 35.4121 159.519 36.0921 160.884 37.4568C162.248 38.8215 162.926 40.5026 162.917 42.5001V127.5C162.917 129.507 162.237 131.191 160.877 132.551C159.517 133.911 157.836 134.588 155.833 134.583Z" fill="white"/>
</svg>
