<svg width="170" height="170" viewBox="0 0 170 170" fill="none" xmlns="http://www.w3.org/2000/svg">
<path opacity="0.3" d="M85.0001 155.833C124.12 155.833 155.833 124.12 155.833 84.9998C155.833 45.8797 124.12 14.1665 85.0001 14.1665C45.8799 14.1665 14.1667 45.8797 14.1667 84.9998C14.1667 124.12 45.8799 155.833 85.0001 155.833Z" fill="#4B4B4B" stroke="#4B4B4B" stroke-width="2"/>
<path fill-rule="evenodd" clip-rule="evenodd" d="M7.08337 84.9999C7.08337 128.031 41.9688 162.917 85 162.917C128.031 162.917 162.917 128.031 162.917 84.9999C162.917 41.9687 128.031 7.08325 85 7.08325V21.2499C97.6086 21.2499 109.934 24.9888 120.418 31.9937C130.901 38.9987 139.072 48.9551 143.897 60.6038C148.722 72.2526 149.985 85.0706 147.525 97.4369C145.065 109.803 138.994 121.162 130.078 130.078C121.162 138.994 109.803 145.065 97.437 147.525C85.0708 149.985 72.2528 148.722 60.604 143.897C48.9552 139.072 38.9988 130.901 31.9939 120.418C24.9889 109.934 21.25 97.6085 21.25 84.9999H7.08337Z" fill="#4B4B4B"/>
</svg>
