<svg width="170" height="170" viewBox="0 0 170 170" fill="none" xmlns="http://www.w3.org/2000/svg">
<path d="M85 14.1667C91.3467 14.1667 97.495 15.0026 103.346 16.568L88.2867 31.6201C87.1442 32.7671 86.1366 34.0409 85.2834 35.4167H85C75.1934 35.4167 65.6069 38.3248 57.453 43.773C49.2991 49.2213 42.9438 56.9652 39.191 66.0254C35.4381 75.0855 34.4562 85.0551 36.3694 94.6733C38.2826 104.292 43.005 113.126 49.9393 120.061C56.8737 126.995 65.7086 131.718 75.3268 133.631C84.945 135.544 94.9146 134.562 103.975 130.809C113.035 127.056 120.779 120.701 126.227 112.547C131.675 104.393 134.583 94.8067 134.583 85.0001V84.7168C135.953 83.8668 137.216 82.8633 138.373 81.7063L153.432 66.6542C154.998 72.5051 155.833 78.6534 155.833 85.0001C155.833 124.121 124.121 155.833 85 155.833C45.8788 155.833 14.1667 124.121 14.1667 85.0001C14.1667 45.8788 45.8788 14.1667 85 14.1667ZM82.0675 49.7038C82.0675 55.7318 81.77 61.8447 82.0959 67.8655L78.2709 71.6905C76.9551 73.0063 75.9114 74.5683 75.1993 76.2874C74.4872 78.0066 74.1207 79.8491 74.1207 81.7099C74.1207 83.5706 74.4872 85.4132 75.1993 87.1323C75.9114 88.8514 76.9551 90.4135 78.2709 91.7292C79.5866 93.045 81.1487 94.0887 82.8678 94.8008C84.5869 95.5129 86.4295 95.8794 88.2902 95.8794C90.151 95.8794 91.9935 95.5129 93.7127 94.8008C95.4318 94.0887 96.9938 93.045 98.3096 91.7292L102.135 87.9043C108.155 88.2301 114.261 87.9326 120.296 87.9326C119.737 94.6642 117.264 101.095 113.169 106.468C109.075 111.84 103.529 115.929 97.1866 118.253C90.8442 120.577 83.9695 121.039 77.3732 119.584C70.777 118.129 64.7343 114.819 59.958 110.042C55.1816 105.266 51.8708 99.2231 50.4159 92.6269C48.961 86.0306 49.4229 79.1559 51.7469 72.8135C54.0709 66.4711 58.1602 60.9255 63.5325 56.8309C68.9048 52.7363 75.3359 50.2634 82.0675 49.7038ZM131.07 15.0663C132.363 15.6024 133.468 16.5095 134.246 17.6731C135.024 18.8367 135.439 20.2046 135.44 21.6042V34.5667H148.396C149.797 34.567 151.166 34.9826 152.33 35.761C153.495 36.5393 154.403 37.6455 154.939 38.9396C155.475 40.2337 155.615 41.6577 155.342 43.0316C155.068 44.4054 154.394 45.6674 153.404 46.658L128.35 71.6834C127.022 73.0119 125.221 73.7584 123.342 73.7588H106.25L93.3017 86.7142C91.9726 88.0434 90.1699 88.7901 88.2902 88.7901C86.4106 88.7901 84.6079 88.0434 83.2788 86.7142C81.9497 85.3851 81.203 83.5825 81.203 81.7028C81.203 79.8231 81.9497 78.0205 83.2788 76.6913L96.2342 63.7501V46.6509C96.2335 45.7196 96.4164 44.7973 96.7725 43.9368C97.1286 43.0762 97.651 42.2944 98.3096 41.6359L123.349 16.5963C124.34 15.6051 125.602 14.93 126.976 14.6564C128.351 14.3828 129.775 14.523 131.07 15.0592" fill="#4B4B4B"/>
</svg>
