<svg width="24" height="24" viewBox="0 0 24 24" fill="none" xmlns="http://www.w3.org/2000/svg">
<path d="M16 22V19.75C15.0667 19.45 14.2833 18.9167 13.65 18.15C13.0167 17.3833 12.65 16.5 12.55 15.5H14.55C14.6833 16.2167 15.021 16.8123 15.563 17.287C16.105 17.7617 16.7507 17.9993 17.5 18H20.5C20.9167 18 21.271 18.146 21.563 18.438C21.855 18.73 22.0007 19.084 22 19.5V22H16ZM19 17C18.45 17 17.9793 16.8043 17.588 16.413C17.1967 16.0217 17.0007 15.5507 17 15C16.9993 14.4493 17.1953 13.9787 17.588 13.588C17.9807 13.1973 18.4513 13.0013 19 13C19.5487 12.9987 20.0197 13.1947 20.413 13.588C20.8063 13.9813 21.002 14.452 21 15C20.998 15.548 20.8023 16.019 20.413 16.413C20.0237 16.807 19.5527 17.0027 19 17ZM9 14C9 11.5 9.875 9.37501 11.625 7.62501C13.375 5.87501 15.5 5.00001 18 5.00001V7.00001C16.05 7.00001 14.396 7.67934 13.038 9.03801C11.68 10.3967 11.0007 12.0507 11 14H9ZM13 14C13 12.6167 13.4877 11.4377 14.463 10.463C15.4383 9.48834 16.6173 9.00067 18 9.00001V11C17.1667 11 16.4583 11.2917 15.875 11.875C15.2917 12.4583 15 13.1667 15 14H13ZM2 11V8.50001C2 8.08334 2.146 7.72934 2.438 7.43801C2.73 7.14667 3.084 7.00067 3.5 7.00001H6.5C7.25 7.00001 7.896 6.76267 8.438 6.28801C8.98 5.81334 9.31733 5.21734 9.45 4.50001H11.45C11.35 5.50001 10.9833 6.38334 10.35 7.15001C9.71667 7.91667 8.93333 8.45001 8 8.75001V11H2ZM5 6.00001C4.45 6.00001 3.97933 5.80434 3.588 5.41301C3.19667 5.02167 3.00067 4.55067 3 4.00001C2.99933 3.44934 3.19533 2.97867 3.588 2.58801C3.98067 2.19734 4.45133 2.00134 5 2.00001C5.54867 1.99867 6.01967 2.19467 6.413 2.58801C6.80633 2.98134 7.002 3.45201 7 4.00001C6.998 4.54801 6.80233 5.01901 6.413 5.41301C6.02367 5.80701 5.55267 6.00267 5 6.00001Z" fill="black"/>
</svg>
