<svg width="198" height="248" viewBox="0 0 198 248" fill="none" xmlns="http://www.w3.org/2000/svg">
<path d="M21.5739 232.163C21.5739 230.803 21.8805 229.583 22.4939 228.503C23.1072 227.41 23.9405 226.557 24.9939 225.943C26.0605 225.33 27.2405 225.023 28.5339 225.023C30.0539 225.023 31.3805 225.39 32.5139 226.123C33.6472 226.857 34.4739 227.897 34.9939 229.243H32.8139C32.4272 228.403 31.8672 227.757 31.1339 227.303C30.4139 226.85 29.5472 226.623 28.5339 226.623C27.5605 226.623 26.6872 226.85 25.9139 227.303C25.1405 227.757 24.5339 228.403 24.0939 229.243C23.6539 230.07 23.4339 231.043 23.4339 232.163C23.4339 233.27 23.6539 234.243 24.0939 235.083C24.5339 235.91 25.1405 236.55 25.9139 237.003C26.6872 237.457 27.5605 237.683 28.5339 237.683C29.5472 237.683 30.4139 237.463 31.1339 237.023C31.8672 236.57 32.4272 235.923 32.8139 235.083H34.9939C34.4739 236.417 33.6472 237.45 32.5139 238.183C31.3805 238.903 30.0539 239.263 28.5339 239.263C27.2405 239.263 26.0605 238.963 24.9939 238.363C23.9405 237.75 23.1072 236.903 22.4939 235.823C21.8805 234.743 21.5739 233.523 21.5739 232.163ZM42.4831 239.323C41.4564 239.323 40.5231 239.09 39.6831 238.623C38.8564 238.157 38.2031 237.497 37.7231 236.643C37.2564 235.777 37.0231 234.777 37.0231 233.643C37.0231 232.523 37.2631 231.537 37.7431 230.683C38.2364 229.817 38.9031 229.157 39.7431 228.703C40.5831 228.237 41.5231 228.003 42.5631 228.003C43.6031 228.003 44.5431 228.237 45.3831 228.703C46.2231 229.157 46.8831 229.81 47.3631 230.663C47.8564 231.517 48.1031 232.51 48.1031 233.643C48.1031 234.777 47.8498 235.777 47.3431 236.643C46.8498 237.497 46.1764 238.157 45.3231 238.623C44.4698 239.09 43.5231 239.323 42.4831 239.323ZM42.4831 237.723C43.1364 237.723 43.7498 237.57 44.3231 237.263C44.8964 236.957 45.3564 236.497 45.7031 235.883C46.0631 235.27 46.2431 234.523 46.2431 233.643C46.2431 232.763 46.0698 232.017 45.7231 231.403C45.3764 230.79 44.9231 230.337 44.3631 230.043C43.8031 229.737 43.1964 229.583 42.5431 229.583C41.8764 229.583 41.2631 229.737 40.7031 230.043C40.1564 230.337 39.7164 230.79 39.3831 231.403C39.0498 232.017 38.8831 232.763 38.8831 233.643C38.8831 234.537 39.0431 235.29 39.3631 235.903C39.6964 236.517 40.1364 236.977 40.6831 237.283C41.2298 237.577 41.8298 237.723 42.4831 237.723ZM55.8361 227.983C57.1694 227.983 58.2494 228.39 59.0761 229.203C59.9027 230.003 60.3161 231.163 60.3161 232.683V239.143H58.5161V232.943C58.5161 231.85 58.2427 231.017 57.6961 230.443C57.1494 229.857 56.4027 229.563 55.4561 229.563C54.4961 229.563 53.7294 229.863 53.1561 230.463C52.5961 231.063 52.3161 231.937 52.3161 233.083V239.143H50.4961V228.183H52.3161V229.743C52.6761 229.183 53.1627 228.75 53.7761 228.443C54.4027 228.137 55.0894 227.983 55.8361 227.983ZM65.509 229.683V236.143C65.509 236.677 65.6224 237.057 65.849 237.283C66.0757 237.497 66.469 237.603 67.029 237.603H68.369V239.143H66.729C65.7157 239.143 64.9557 238.91 64.449 238.443C63.9424 237.977 63.689 237.21 63.689 236.143V229.683H62.269V228.183H63.689V225.423H65.509V228.183H68.369V229.683H65.509ZM80.5742 233.243C80.5742 233.59 80.5542 233.957 80.5142 234.343H71.7542C71.8208 235.423 72.1875 236.27 72.8542 236.883C73.5342 237.483 74.3542 237.783 75.3142 237.783C76.1008 237.783 76.7542 237.603 77.2742 237.243C77.8075 236.87 78.1808 236.377 78.3942 235.763H80.3542C80.0608 236.817 79.4742 237.677 78.5942 238.343C77.7142 238.997 76.6208 239.323 75.3142 239.323C74.2742 239.323 73.3408 239.09 72.5142 238.623C71.7008 238.157 71.0608 237.497 70.5942 236.643C70.1275 235.777 69.8942 234.777 69.8942 233.643C69.8942 232.51 70.1208 231.517 70.5742 230.663C71.0275 229.81 71.6608 229.157 72.4742 228.703C73.3008 228.237 74.2475 228.003 75.3142 228.003C76.3542 228.003 77.2742 228.23 78.0742 228.683C78.8742 229.137 79.4875 229.763 79.9142 230.563C80.3542 231.35 80.5742 232.243 80.5742 233.243ZM78.6942 232.863C78.6942 232.17 78.5408 231.577 78.2342 231.083C77.9275 230.577 77.5075 230.197 76.9742 229.943C76.4542 229.677 75.8742 229.543 75.2342 229.543C74.3142 229.543 73.5275 229.837 72.8742 230.423C72.2342 231.01 71.8675 231.823 71.7742 232.863H78.6942ZM88.3165 227.983C89.6499 227.983 90.7299 228.39 91.5565 229.203C92.3832 230.003 92.7965 231.163 92.7965 232.683V239.143H90.9965V232.943C90.9965 231.85 90.7232 231.017 90.1765 230.443C89.6299 229.857 88.8832 229.563 87.9365 229.563C86.9765 229.563 86.2099 229.863 85.6365 230.463C85.0765 231.063 84.7965 231.937 84.7965 233.083V239.143H82.9765V228.183H84.7965V229.743C85.1565 229.183 85.6432 228.75 86.2565 228.443C86.8832 228.137 87.5699 227.983 88.3165 227.983ZM97.9895 229.683V236.143C97.9895 236.677 98.1028 237.057 98.3295 237.283C98.5562 237.497 98.9495 237.603 99.5095 237.603H100.849V239.143H99.2095C98.1962 239.143 97.4362 238.91 96.9295 238.443C96.4228 237.977 96.1695 237.21 96.1695 236.143V229.683H94.7495V228.183H96.1695V225.423H97.9895V228.183H100.849V229.683H97.9895ZM125.907 225.203L121.867 239.143H119.827L116.587 227.923L113.227 239.143L111.207 239.163L107.307 225.203H109.247L112.287 237.023L115.647 225.203H117.687L120.887 236.983L123.947 225.203H125.907ZM129.718 229.963C130.038 229.337 130.492 228.85 131.078 228.503C131.678 228.157 132.405 227.983 133.258 227.983V229.863H132.778C130.738 229.863 129.718 230.97 129.718 233.183V239.143H127.898V228.183H129.718V229.963ZM136.299 226.403C135.953 226.403 135.659 226.283 135.419 226.043C135.179 225.803 135.059 225.51 135.059 225.163C135.059 224.817 135.179 224.523 135.419 224.283C135.659 224.043 135.953 223.923 136.299 223.923C136.633 223.923 136.913 224.043 137.139 224.283C137.379 224.523 137.499 224.817 137.499 225.163C137.499 225.51 137.379 225.803 137.139 226.043C136.913 226.283 136.633 226.403 136.299 226.403ZM137.179 228.183V239.143H135.359V228.183H137.179ZM142.501 229.683V236.143C142.501 236.677 142.615 237.057 142.841 237.283C143.068 237.497 143.461 237.603 144.021 237.603H145.361V239.143H143.721C142.708 239.143 141.948 238.91 141.441 238.443C140.935 237.977 140.681 237.21 140.681 236.143V229.683H139.261V228.183H140.681V225.423H142.501V228.183H145.361V229.683H142.501ZM148.506 226.403C148.16 226.403 147.866 226.283 147.626 226.043C147.386 225.803 147.266 225.51 147.266 225.163C147.266 224.817 147.386 224.523 147.626 224.283C147.866 224.043 148.16 223.923 148.506 223.923C148.84 223.923 149.12 224.043 149.346 224.283C149.586 224.523 149.706 224.817 149.706 225.163C149.706 225.51 149.586 225.803 149.346 226.043C149.12 226.283 148.84 226.403 148.506 226.403ZM149.386 228.183V239.143H147.566V228.183H149.386ZM157.828 227.983C159.162 227.983 160.242 228.39 161.068 229.203C161.895 230.003 162.308 231.163 162.308 232.683V239.143H160.508V232.943C160.508 231.85 160.235 231.017 159.688 230.443C159.142 229.857 158.395 229.563 157.448 229.563C156.488 229.563 155.722 229.863 155.148 230.463C154.588 231.063 154.308 231.937 154.308 233.083V239.143H152.488V228.183H154.308V229.743C154.668 229.183 155.155 228.75 155.768 228.443C156.395 228.137 157.082 227.983 157.828 227.983ZM169.801 228.003C170.748 228.003 171.575 228.21 172.281 228.623C173.001 229.037 173.535 229.557 173.881 230.183V228.183H175.721V239.383C175.721 240.383 175.508 241.27 175.081 242.043C174.655 242.83 174.041 243.443 173.241 243.883C172.455 244.323 171.535 244.543 170.481 244.543C169.041 244.543 167.841 244.203 166.881 243.523C165.921 242.843 165.355 241.917 165.181 240.743H166.981C167.181 241.41 167.595 241.943 168.221 242.343C168.848 242.757 169.601 242.963 170.481 242.963C171.481 242.963 172.295 242.65 172.921 242.023C173.561 241.397 173.881 240.517 173.881 239.383V237.083C173.521 237.723 172.988 238.257 172.281 238.683C171.575 239.11 170.748 239.323 169.801 239.323C168.828 239.323 167.941 239.083 167.141 238.603C166.355 238.123 165.735 237.45 165.281 236.583C164.828 235.717 164.601 234.73 164.601 233.623C164.601 232.503 164.828 231.523 165.281 230.683C165.735 229.83 166.355 229.17 167.141 228.703C167.941 228.237 168.828 228.003 169.801 228.003ZM173.881 233.643C173.881 232.817 173.715 232.097 173.381 231.483C173.048 230.87 172.595 230.403 172.021 230.083C171.461 229.75 170.841 229.583 170.161 229.583C169.481 229.583 168.861 229.743 168.301 230.063C167.741 230.383 167.295 230.85 166.961 231.463C166.628 232.077 166.461 232.797 166.461 233.623C166.461 234.463 166.628 235.197 166.961 235.823C167.295 236.437 167.741 236.91 168.301 237.243C168.861 237.563 169.481 237.723 170.161 237.723C170.841 237.723 171.461 237.563 172.021 237.243C172.595 236.91 173.048 236.437 173.381 235.823C173.715 235.197 173.881 234.47 173.881 233.643Z" fill="#595959"/>
<path d="M86.7419 91.1878L80.0699 106.572H77.3099L84.0539 91.4758H75.1739V89.1478H86.7419V91.1878ZM89.0836 97.5958C89.0836 94.8278 89.5476 92.6678 90.4756 91.1158C91.4196 89.5478 93.0356 88.7638 95.3236 88.7638C97.6116 88.7638 99.2196 89.5478 100.148 91.1158C101.092 92.6678 101.564 94.8278 101.564 97.5958C101.564 100.396 101.092 102.588 100.148 104.172C99.2196 105.74 97.6116 106.524 95.3236 106.524C93.0356 106.524 91.4196 105.74 90.4756 104.172C89.5476 102.588 89.0836 100.396 89.0836 97.5958ZM98.8756 97.5958C98.8756 96.2998 98.7876 95.2038 98.6116 94.3078C98.4516 93.4118 98.1156 92.6838 97.6036 92.1238C97.0916 91.5478 96.3316 91.2598 95.3236 91.2598C94.3156 91.2598 93.5556 91.5478 93.0436 92.1238C92.5316 92.6838 92.1876 93.4118 92.0116 94.3078C91.8516 95.2038 91.7716 96.2998 91.7716 97.5958C91.7716 98.9398 91.8516 100.068 92.0116 100.98C92.1716 101.892 92.5076 102.628 93.0196 103.188C93.5476 103.748 94.3156 104.028 95.3236 104.028C96.3316 104.028 97.0916 103.748 97.6036 103.188C98.1316 102.628 98.4756 101.892 98.6356 100.98C98.7956 100.068 98.8756 98.9398 98.8756 97.5958ZM104.027 93.2998C104.027 92.1318 104.363 91.2198 105.035 90.5638C105.723 89.8918 106.603 89.5558 107.675 89.5558C108.747 89.5558 109.619 89.8918 110.291 90.5638C110.979 91.2198 111.323 92.1318 111.323 93.2998C111.323 94.4678 110.979 95.3878 110.291 96.0598C109.619 96.7318 108.747 97.0678 107.675 97.0678C106.603 97.0678 105.723 96.7318 105.035 96.0598C104.363 95.3878 104.027 94.4678 104.027 93.2998ZM118.667 89.8678L109.091 106.572H106.403L115.979 89.8678H118.667ZM107.675 91.2118C106.667 91.2118 106.163 91.9078 106.163 93.2998C106.163 94.7078 106.667 95.4118 107.675 95.4118C108.155 95.4118 108.523 95.2438 108.779 94.9078C109.051 94.5558 109.187 94.0198 109.187 93.2998C109.187 91.9078 108.683 91.2118 107.675 91.2118ZM113.795 103.116C113.795 101.948 114.131 101.036 114.803 100.38C115.491 99.7078 116.371 99.3718 117.443 99.3718C118.499 99.3718 119.363 99.7078 120.035 100.38C120.723 101.036 121.067 101.948 121.067 103.116C121.067 104.284 120.723 105.204 120.035 105.876C119.363 106.548 118.499 106.884 117.443 106.884C116.371 106.884 115.491 106.548 114.803 105.876C114.131 105.204 113.795 104.284 113.795 103.116ZM117.419 101.028C116.411 101.028 115.907 101.724 115.907 103.116C115.907 104.508 116.411 105.204 117.419 105.204C118.427 105.204 118.931 104.508 118.931 103.116C118.931 101.724 118.427 101.028 117.419 101.028Z" fill="#595959"/>
<mask id="path-3-inside-1_2054_380" fill="white">
<path d="M197.786 98.5718C197.786 153.011 153.654 197.144 99.2139 197.144C44.7742 197.144 0.64209 153.011 0.64209 98.5718C0.64209 44.1321 44.7742 0 99.2139 0C153.654 0 197.786 44.1321 197.786 98.5718ZM23.3091 98.5718C23.3091 140.493 57.2928 174.477 99.2139 174.477C141.135 174.477 175.119 140.493 175.119 98.5718C175.119 56.6507 141.135 22.667 99.2139 22.667C57.2928 22.667 23.3091 56.6507 23.3091 98.5718Z"/>
</mask>
<path d="M197.786 98.5718C197.786 153.011 153.654 197.144 99.2139 197.144C44.7742 197.144 0.64209 153.011 0.64209 98.5718C0.64209 44.1321 44.7742 0 99.2139 0C153.654 0 197.786 44.1321 197.786 98.5718ZM23.3091 98.5718C23.3091 140.493 57.2928 174.477 99.2139 174.477C141.135 174.477 175.119 140.493 175.119 98.5718C175.119 56.6507 141.135 22.667 99.2139 22.667C57.2928 22.667 23.3091 56.6507 23.3091 98.5718Z" fill="white" stroke="black" stroke-opacity="0.2" stroke-width="2" mask="url(#path-3-inside-1_2054_380)"/>
<path d="M197.717 94.8985C198.395 113.065 194.035 131.064 185.121 146.908C176.207 162.751 163.085 175.82 147.206 184.671C131.328 193.522 113.311 197.81 95.1474 197.06C76.984 196.31 59.3818 190.552 44.2868 180.422C29.1919 170.292 17.1922 156.185 9.61438 139.661C2.0366 123.137 -0.824058 104.839 1.34867 86.7905C3.52139 68.742 10.6429 51.6458 21.9257 37.3922C33.2086 23.1385 48.2134 12.2826 65.2812 6.02467L75.6615 34.3356C63.8149 38.6792 53.4002 46.2142 45.5688 56.1075C37.7375 66.0009 32.7945 77.8672 31.2864 90.3945C29.7784 102.922 31.7639 115.622 37.0236 127.091C42.2833 138.561 50.6122 148.352 61.0895 155.383C71.5668 162.414 83.7843 166.411 96.3913 166.931C108.998 167.452 121.504 164.476 132.525 158.333C143.546 152.189 152.654 143.118 158.841 132.121C165.029 121.125 168.054 108.631 167.584 96.0222L197.717 94.8985Z" fill="#0B6D93"/>
</svg>
