<svg width="198" height="248" viewBox="0 0 198 248" fill="none" xmlns="http://www.w3.org/2000/svg">
<path d="M52.2174 225.203V239.143H50.3974V225.203H52.2174ZM63.8993 225.203V226.683H60.0993V239.143H58.2793V226.683H54.4593V225.203H63.8993ZM75.8916 239.283C74.9716 239.283 74.145 239.123 73.4116 238.803C72.6916 238.47 72.125 238.017 71.7116 237.443C71.2983 236.857 71.085 236.183 71.0716 235.423H73.0116C73.0783 236.077 73.345 236.63 73.8116 237.083C74.2916 237.523 74.985 237.743 75.8916 237.743C76.7583 237.743 77.4383 237.53 77.9316 237.103C78.4383 236.663 78.6916 236.103 78.6916 235.423C78.6916 234.89 78.545 234.457 78.2516 234.123C77.9583 233.79 77.5916 233.537 77.1516 233.363C76.7116 233.19 76.1183 233.003 75.3716 232.803C74.4516 232.563 73.7116 232.323 73.1516 232.083C72.605 231.843 72.1316 231.47 71.7316 230.963C71.345 230.443 71.1516 229.75 71.1516 228.883C71.1516 228.123 71.345 227.45 71.7316 226.863C72.1183 226.277 72.6583 225.823 73.3516 225.503C74.0583 225.183 74.865 225.023 75.7716 225.023C77.0783 225.023 78.145 225.35 78.9716 226.003C79.8116 226.657 80.285 227.523 80.3916 228.603H78.3916C78.325 228.07 78.045 227.603 77.5516 227.203C77.0583 226.79 76.405 226.583 75.5916 226.583C74.8316 226.583 74.2116 226.783 73.7316 227.183C73.2516 227.57 73.0116 228.117 73.0116 228.823C73.0116 229.33 73.1516 229.743 73.4316 230.063C73.725 230.383 74.0783 230.63 74.4916 230.803C74.9183 230.963 75.5116 231.15 76.2716 231.363C77.1916 231.617 77.9316 231.87 78.4916 232.123C79.0516 232.363 79.5316 232.743 79.9316 233.263C80.3316 233.77 80.5316 234.463 80.5316 235.343C80.5316 236.023 80.3516 236.663 79.9916 237.263C79.6316 237.863 79.0983 238.35 78.3916 238.723C77.685 239.097 76.8516 239.283 75.8916 239.283ZM92.9299 228.183V239.143H91.1099V237.523C90.7633 238.083 90.2766 238.523 89.6499 238.843C89.0366 239.15 88.3566 239.303 87.6099 239.303C86.7566 239.303 85.9899 239.13 85.3099 238.783C84.6299 238.423 84.0899 237.89 83.6899 237.183C83.3033 236.477 83.1099 235.617 83.1099 234.603V228.183H84.9099V234.363C84.9099 235.443 85.1833 236.277 85.7299 236.863C86.2766 237.437 87.0233 237.723 87.9699 237.723C88.9433 237.723 89.7099 237.423 90.2699 236.823C90.8299 236.223 91.1099 235.35 91.1099 234.203V228.183H92.9299ZM97.8229 230.203C98.1829 229.577 98.7162 229.057 99.4229 228.643C100.143 228.217 100.976 228.003 101.923 228.003C102.896 228.003 103.776 228.237 104.563 228.703C105.363 229.17 105.99 229.83 106.443 230.683C106.896 231.523 107.123 232.503 107.123 233.623C107.123 234.73 106.896 235.717 106.443 236.583C105.99 237.45 105.363 238.123 104.563 238.603C103.776 239.083 102.896 239.323 101.923 239.323C100.99 239.323 100.163 239.117 99.4429 238.703C98.7362 238.277 98.1962 237.75 97.8229 237.123V244.343H96.0029V228.183H97.8229V230.203ZM105.263 233.623C105.263 232.797 105.096 232.077 104.763 231.463C104.43 230.85 103.976 230.383 103.403 230.063C102.843 229.743 102.223 229.583 101.543 229.583C100.876 229.583 100.256 229.75 99.6829 230.083C99.1229 230.403 98.6696 230.877 98.3229 231.503C97.9896 232.117 97.8229 232.83 97.8229 233.643C97.8229 234.47 97.9896 235.197 98.3229 235.823C98.6696 236.437 99.1229 236.91 99.6829 237.243C100.256 237.563 100.876 237.723 101.543 237.723C102.223 237.723 102.843 237.563 103.403 237.243C103.976 236.91 104.43 236.437 104.763 235.823C105.096 235.197 105.263 234.463 105.263 233.623ZM111.339 230.203C111.699 229.577 112.232 229.057 112.939 228.643C113.659 228.217 114.492 228.003 115.439 228.003C116.412 228.003 117.292 228.237 118.079 228.703C118.879 229.17 119.505 229.83 119.959 230.683C120.412 231.523 120.639 232.503 120.639 233.623C120.639 234.73 120.412 235.717 119.959 236.583C119.505 237.45 118.879 238.123 118.079 238.603C117.292 239.083 116.412 239.323 115.439 239.323C114.505 239.323 113.679 239.117 112.959 238.703C112.252 238.277 111.712 237.75 111.339 237.123V244.343H109.519V228.183H111.339V230.203ZM118.779 233.623C118.779 232.797 118.612 232.077 118.279 231.463C117.945 230.85 117.492 230.383 116.919 230.063C116.359 229.743 115.739 229.583 115.059 229.583C114.392 229.583 113.772 229.75 113.199 230.083C112.639 230.403 112.185 230.877 111.839 231.503C111.505 232.117 111.339 232.83 111.339 233.643C111.339 234.47 111.505 235.197 111.839 235.823C112.185 236.437 112.639 236.91 113.199 237.243C113.772 237.563 114.392 237.723 115.059 237.723C115.739 237.723 116.359 237.563 116.919 237.243C117.492 236.91 117.945 236.437 118.279 235.823C118.612 235.197 118.779 234.463 118.779 233.623ZM127.814 239.323C126.787 239.323 125.854 239.09 125.014 238.623C124.187 238.157 123.534 237.497 123.054 236.643C122.587 235.777 122.354 234.777 122.354 233.643C122.354 232.523 122.594 231.537 123.074 230.683C123.567 229.817 124.234 229.157 125.074 228.703C125.914 228.237 126.854 228.003 127.894 228.003C128.934 228.003 129.874 228.237 130.714 228.703C131.554 229.157 132.214 229.81 132.694 230.663C133.187 231.517 133.434 232.51 133.434 233.643C133.434 234.777 133.181 235.777 132.674 236.643C132.181 237.497 131.507 238.157 130.654 238.623C129.801 239.09 128.854 239.323 127.814 239.323ZM127.814 237.723C128.467 237.723 129.081 237.57 129.654 237.263C130.227 236.957 130.687 236.497 131.034 235.883C131.394 235.27 131.574 234.523 131.574 233.643C131.574 232.763 131.401 232.017 131.054 231.403C130.707 230.79 130.254 230.337 129.694 230.043C129.134 229.737 128.527 229.583 127.874 229.583C127.207 229.583 126.594 229.737 126.034 230.043C125.487 230.337 125.047 230.79 124.714 231.403C124.381 232.017 124.214 232.763 124.214 233.643C124.214 234.537 124.374 235.29 124.694 235.903C125.027 236.517 125.467 236.977 126.014 237.283C126.561 237.577 127.161 237.723 127.814 237.723ZM137.647 229.963C137.967 229.337 138.42 228.85 139.007 228.503C139.607 228.157 140.334 227.983 141.187 227.983V229.863H140.707C138.667 229.863 137.647 230.97 137.647 233.183V239.143H135.827V228.183H137.647V229.963ZM145.508 229.683V236.143C145.508 236.677 145.621 237.057 145.848 237.283C146.075 237.497 146.468 237.603 147.028 237.603H148.368V239.143H146.728C145.715 239.143 144.955 238.91 144.448 238.443C143.941 237.977 143.688 237.21 143.688 236.143V229.683H142.268V228.183H143.688V225.423H145.508V228.183H148.368V229.683H145.508Z" fill="#595959"/>
<path d="M87.0774 91.4278H79.0374V96.2038C79.3734 95.7558 79.8694 95.3798 80.5254 95.0758C81.1974 94.7718 81.9094 94.6198 82.6614 94.6198C84.0054 94.6198 85.0934 94.9078 85.9254 95.4838C86.7734 96.0598 87.3734 96.7878 87.7254 97.6678C88.0934 98.5478 88.2774 99.4758 88.2774 100.452C88.2774 101.636 88.0454 102.692 87.5814 103.62C87.1334 104.532 86.4534 105.252 85.5414 105.78C84.6454 106.308 83.5414 106.572 82.2294 106.572C80.4854 106.572 79.0854 106.14 78.0294 105.276C76.9734 104.412 76.3414 103.268 76.1334 101.844H78.7974C78.9734 102.596 79.3654 103.196 79.9734 103.644C80.5814 104.076 81.3414 104.292 82.2534 104.292C83.3894 104.292 84.2374 103.948 84.7974 103.26C85.3734 102.572 85.6614 101.66 85.6614 100.524C85.6614 99.3718 85.3734 98.4918 84.7974 97.8838C84.2214 97.2598 83.3734 96.9478 82.2534 96.9478C81.4694 96.9478 80.8054 97.1478 80.2614 97.5478C79.7334 97.9318 79.3494 98.4598 79.1094 99.1318H76.5174V89.0278H87.0774V91.4278ZM91.1255 97.5958C91.1255 94.8278 91.5895 92.6678 92.5175 91.1158C93.4615 89.5478 95.0775 88.7638 97.3655 88.7638C99.6535 88.7638 101.262 89.5478 102.19 91.1158C103.134 92.6678 103.606 94.8278 103.606 97.5958C103.606 100.396 103.134 102.588 102.19 104.172C101.262 105.74 99.6535 106.524 97.3655 106.524C95.0775 106.524 93.4615 105.74 92.5175 104.172C91.5895 102.588 91.1255 100.396 91.1255 97.5958ZM100.918 97.5958C100.918 96.2998 100.83 95.2038 100.654 94.3078C100.494 93.4118 100.158 92.6838 99.6455 92.1238C99.1335 91.5478 98.3735 91.2598 97.3655 91.2598C96.3575 91.2598 95.5975 91.5478 95.0855 92.1238C94.5735 92.6838 94.2295 93.4118 94.0535 94.3078C93.8935 95.2038 93.8135 96.2998 93.8135 97.5958C93.8135 98.9398 93.8935 100.068 94.0535 100.98C94.2135 101.892 94.5495 102.628 95.0615 103.188C95.5895 103.748 96.3575 104.028 97.3655 104.028C98.3735 104.028 99.1335 103.748 99.6455 103.188C100.174 102.628 100.518 101.892 100.678 100.98C100.838 100.068 100.918 98.9398 100.918 97.5958ZM106.069 93.2998C106.069 92.1318 106.405 91.2198 107.077 90.5638C107.765 89.8918 108.645 89.5558 109.717 89.5558C110.789 89.5558 111.661 89.8918 112.333 90.5638C113.021 91.2198 113.365 92.1318 113.365 93.2998C113.365 94.4678 113.021 95.3878 112.333 96.0598C111.661 96.7318 110.789 97.0678 109.717 97.0678C108.645 97.0678 107.765 96.7318 107.077 96.0598C106.405 95.3878 106.069 94.4678 106.069 93.2998ZM120.709 89.8678L111.133 106.572H108.445L118.021 89.8678H120.709ZM109.717 91.2118C108.709 91.2118 108.205 91.9078 108.205 93.2998C108.205 94.7078 108.709 95.4118 109.717 95.4118C110.197 95.4118 110.565 95.2438 110.821 94.9078C111.093 94.5558 111.229 94.0198 111.229 93.2998C111.229 91.9078 110.725 91.2118 109.717 91.2118ZM115.837 103.116C115.837 101.948 116.173 101.036 116.845 100.38C117.533 99.7078 118.413 99.3718 119.485 99.3718C120.541 99.3718 121.405 99.7078 122.077 100.38C122.765 101.036 123.109 101.948 123.109 103.116C123.109 104.284 122.765 105.204 122.077 105.876C121.405 106.548 120.541 106.884 119.485 106.884C118.413 106.884 117.533 106.548 116.845 105.876C116.173 105.204 115.837 104.284 115.837 103.116ZM119.461 101.028C118.453 101.028 117.949 101.724 117.949 103.116C117.949 104.508 118.453 105.204 119.461 105.204C120.469 105.204 120.973 104.508 120.973 103.116C120.973 101.724 120.469 101.028 119.461 101.028Z" fill="#595959"/>
<mask id="path-3-inside-1_2054_389" fill="white">
<path d="M197.929 98.5718C197.929 153.011 153.797 197.144 99.3574 197.144C44.9177 197.144 0.785645 153.011 0.785645 98.5718C0.785645 44.1321 44.9177 0 99.3574 0C153.797 0 197.929 44.1321 197.929 98.5718ZM23.4526 98.5718C23.4526 140.493 57.4364 174.477 99.3574 174.477C141.278 174.477 175.262 140.493 175.262 98.5718C175.262 56.6507 141.278 22.667 99.3574 22.667C57.4364 22.667 23.4526 56.6507 23.4526 98.5718Z"/>
</mask>
<path d="M197.929 98.5718C197.929 153.011 153.797 197.144 99.3574 197.144C44.9177 197.144 0.785645 153.011 0.785645 98.5718C0.785645 44.1321 44.9177 0 99.3574 0C153.797 0 197.929 44.1321 197.929 98.5718ZM23.4526 98.5718C23.4526 140.493 57.4364 174.477 99.3574 174.477C141.278 174.477 175.262 140.493 175.262 98.5718C175.262 56.6507 141.278 22.667 99.3574 22.667C57.4364 22.667 23.4526 56.6507 23.4526 98.5718Z" fill="white" stroke="black" stroke-opacity="0.2" stroke-width="2" mask="url(#path-3-inside-1_2054_389)"/>
<path d="M197.861 94.8985C198.343 107.834 196.273 120.738 191.768 132.874C187.264 145.009 180.413 156.139 171.607 165.627C162.801 175.115 152.213 182.775 140.447 188.171C128.68 193.567 115.966 196.593 103.031 197.075C90.0951 197.557 77.1911 195.487 65.0555 190.983C52.9199 186.478 41.7904 179.627 32.3024 170.822C22.8145 162.016 15.1538 151.427 9.75792 139.661C4.36201 127.895 1.33649 115.181 0.85411 102.245L30.9871 101.121C31.3219 110.1 33.4219 118.925 37.1672 127.091C40.9124 135.258 46.2296 142.608 52.8151 148.72C59.4006 154.832 67.1255 159.587 75.5487 162.713C83.9719 165.84 92.9285 167.277 101.907 166.942C110.886 166.607 119.71 164.507 127.877 160.762C136.044 157.017 143.393 151.7 149.505 145.114C155.617 138.529 160.372 130.804 163.499 122.38C166.626 113.957 168.063 105.001 167.728 96.0222L197.861 94.8985Z" fill="#0B6D93"/>
</svg>
