<svg width="205" height="248" viewBox="0 0 205 248" fill="none" xmlns="http://www.w3.org/2000/svg">
<path d="M6.8892 239.283C5.9692 239.283 5.14253 239.123 4.4092 238.803C3.6892 238.47 3.12253 238.017 2.7092 237.443C2.29587 236.857 2.08253 236.183 2.0692 235.423H4.0092C4.07587 236.077 4.34253 236.63 4.8092 237.083C5.2892 237.523 5.98253 237.743 6.8892 237.743C7.75587 237.743 8.43587 237.53 8.9292 237.103C9.43587 236.663 9.6892 236.103 9.6892 235.423C9.6892 234.89 9.54253 234.457 9.2492 234.123C8.95587 233.79 8.5892 233.537 8.1492 233.363C7.7092 233.19 7.11587 233.003 6.3692 232.803C5.4492 232.563 4.7092 232.323 4.1492 232.083C3.60253 231.843 3.1292 231.47 2.7292 230.963C2.34253 230.443 2.1492 229.75 2.1492 228.883C2.1492 228.123 2.34253 227.45 2.7292 226.863C3.11587 226.277 3.65587 225.823 4.3492 225.503C5.05587 225.183 5.86253 225.023 6.7692 225.023C8.07587 225.023 9.14253 225.35 9.9692 226.003C10.8092 226.657 11.2825 227.523 11.3892 228.603H9.3892C9.32253 228.07 9.04253 227.603 8.5492 227.203C8.05587 226.79 7.40253 226.583 6.5892 226.583C5.8292 226.583 5.2092 226.783 4.7292 227.183C4.2492 227.57 4.0092 228.117 4.0092 228.823C4.0092 229.33 4.1492 229.743 4.4292 230.063C4.72253 230.383 5.07587 230.63 5.4892 230.803C5.91587 230.963 6.5092 231.15 7.2692 231.363C8.1892 231.617 8.9292 231.87 9.4892 232.123C10.0492 232.363 10.5292 232.743 10.9292 233.263C11.3292 233.77 11.5292 234.463 11.5292 235.343C11.5292 236.023 11.3492 236.663 10.9892 237.263C10.6292 237.863 10.0959 238.35 9.3892 238.723C8.68253 239.097 7.8492 239.283 6.8892 239.283ZM18.9875 239.323C17.9608 239.323 17.0275 239.09 16.1875 238.623C15.3608 238.157 14.7075 237.497 14.2275 236.643C13.7608 235.777 13.5275 234.777 13.5275 233.643C13.5275 232.523 13.7675 231.537 14.2475 230.683C14.7408 229.817 15.4075 229.157 16.2475 228.703C17.0875 228.237 18.0275 228.003 19.0675 228.003C20.1075 228.003 21.0475 228.237 21.8875 228.703C22.7275 229.157 23.3875 229.81 23.8675 230.663C24.3608 231.517 24.6075 232.51 24.6075 233.643C24.6075 234.777 24.3541 235.777 23.8475 236.643C23.3541 237.497 22.6808 238.157 21.8275 238.623C20.9741 239.09 20.0275 239.323 18.9875 239.323ZM18.9875 237.723C19.6408 237.723 20.2541 237.57 20.8275 237.263C21.4008 236.957 21.8608 236.497 22.2075 235.883C22.5675 235.27 22.7475 234.523 22.7475 233.643C22.7475 232.763 22.5741 232.017 22.2275 231.403C21.8808 230.79 21.4275 230.337 20.8675 230.043C20.3075 229.737 19.7008 229.583 19.0475 229.583C18.3808 229.583 17.7675 229.737 17.2075 230.043C16.6608 230.337 16.2208 230.79 15.8875 231.403C15.5541 232.017 15.3875 232.763 15.3875 233.643C15.3875 234.537 15.5475 235.29 15.8675 235.903C16.2008 236.517 16.6408 236.977 17.1875 237.283C17.7341 237.577 18.3341 237.723 18.9875 237.723ZM26.3204 233.643C26.3204 232.51 26.5471 231.523 27.0004 230.683C27.4538 229.83 28.0804 229.17 28.8804 228.703C29.6938 228.237 30.6204 228.003 31.6604 228.003C33.0071 228.003 34.1138 228.33 34.9804 228.983C35.8605 229.637 36.4405 230.543 36.7204 231.703H34.7604C34.5738 231.037 34.2071 230.51 33.6604 230.123C33.1271 229.737 32.4604 229.543 31.6604 229.543C30.6204 229.543 29.7804 229.903 29.1404 230.623C28.5004 231.33 28.1804 232.337 28.1804 233.643C28.1804 234.963 28.5004 235.983 29.1404 236.703C29.7804 237.423 30.6204 237.783 31.6604 237.783C32.4604 237.783 33.1271 237.597 33.6604 237.223C34.1938 236.85 34.5604 236.317 34.7604 235.623H36.7204C36.4271 236.743 35.8404 237.643 34.9604 238.323C34.0804 238.99 32.9804 239.323 31.6604 239.323C30.6204 239.323 29.6938 239.09 28.8804 238.623C28.0804 238.157 27.4538 237.497 27.0004 236.643C26.5471 235.79 26.3204 234.79 26.3204 233.643ZM40.0889 226.403C39.7422 226.403 39.4489 226.283 39.2089 226.043C38.9689 225.803 38.8489 225.51 38.8489 225.163C38.8489 224.817 38.9689 224.523 39.2089 224.283C39.4489 224.043 39.7422 223.923 40.0889 223.923C40.4222 223.923 40.7022 224.043 40.9289 224.283C41.1689 224.523 41.2889 224.817 41.2889 225.163C41.2889 225.51 41.1689 225.803 40.9289 226.043C40.7022 226.283 40.4222 226.403 40.0889 226.403ZM40.9689 228.183V239.143H39.1489V228.183H40.9689ZM43.3908 233.623C43.3908 232.503 43.6174 231.523 44.0708 230.683C44.5241 229.83 45.1441 229.17 45.9308 228.703C46.7308 228.237 47.6174 228.003 48.5908 228.003C49.5508 228.003 50.3841 228.21 51.0908 228.623C51.7974 229.037 52.3241 229.557 52.6708 230.183V228.183H54.5108V239.143H52.6708V237.103C52.3108 237.743 51.7708 238.277 51.0508 238.703C50.3441 239.117 49.5174 239.323 48.5708 239.323C47.5974 239.323 46.7174 239.083 45.9308 238.603C45.1441 238.123 44.5241 237.45 44.0708 236.583C43.6174 235.717 43.3908 234.73 43.3908 233.623ZM52.6708 233.643C52.6708 232.817 52.5041 232.097 52.1708 231.483C51.8374 230.87 51.3841 230.403 50.8108 230.083C50.2508 229.75 49.6308 229.583 48.9508 229.583C48.2708 229.583 47.6508 229.743 47.0908 230.063C46.5308 230.383 46.0841 230.85 45.7508 231.463C45.4174 232.077 45.2508 232.797 45.2508 233.623C45.2508 234.463 45.4174 235.197 45.7508 235.823C46.0841 236.437 46.5308 236.91 47.0908 237.243C47.6508 237.563 48.2708 237.723 48.9508 237.723C49.6308 237.723 50.2508 237.563 50.8108 237.243C51.3841 236.91 51.8374 236.437 52.1708 235.823C52.5041 235.197 52.6708 234.47 52.6708 233.643ZM59.4064 224.343V239.143H57.5864V224.343H59.4064ZM81.9803 225.303V239.143H80.1603V228.823L75.5603 239.143H74.2803L69.6603 228.803V239.143H67.8403V225.303H69.8003L74.9203 236.743L80.0403 225.303H81.9803ZM95.0669 233.243C95.0669 233.59 95.0469 233.957 95.0069 234.343H86.2469C86.3135 235.423 86.6802 236.27 87.3469 236.883C88.0269 237.483 88.8469 237.783 89.8069 237.783C90.5935 237.783 91.2469 237.603 91.7669 237.243C92.3002 236.87 92.6735 236.377 92.8869 235.763H94.8469C94.5535 236.817 93.9669 237.677 93.0869 238.343C92.2069 238.997 91.1135 239.323 89.8069 239.323C88.7669 239.323 87.8335 239.09 87.0069 238.623C86.1935 238.157 85.5535 237.497 85.0869 236.643C84.6202 235.777 84.3869 234.777 84.3869 233.643C84.3869 232.51 84.6135 231.517 85.0669 230.663C85.5202 229.81 86.1535 229.157 86.9669 228.703C87.7935 228.237 88.7402 228.003 89.8069 228.003C90.8469 228.003 91.7669 228.23 92.5669 228.683C93.3669 229.137 93.9802 229.763 94.4069 230.563C94.8469 231.35 95.0669 232.243 95.0669 233.243ZM93.1869 232.863C93.1869 232.17 93.0335 231.577 92.7269 231.083C92.4202 230.577 92.0002 230.197 91.4669 229.943C90.9469 229.677 90.3669 229.543 89.7269 229.543C88.8069 229.543 88.0202 229.837 87.3669 230.423C86.7269 231.01 86.3602 231.823 86.2669 232.863H93.1869ZM96.7892 233.623C96.7892 232.503 97.0159 231.523 97.4692 230.683C97.9225 229.83 98.5425 229.17 99.3292 228.703C100.129 228.237 101.023 228.003 102.009 228.003C102.863 228.003 103.656 228.203 104.389 228.603C105.123 228.99 105.683 229.503 106.069 230.143V224.343H107.909V239.143H106.069V237.083C105.709 237.737 105.176 238.277 104.469 238.703C103.763 239.117 102.936 239.323 101.989 239.323C101.016 239.323 100.129 239.083 99.3292 238.603C98.5425 238.123 97.9225 237.45 97.4692 236.583C97.0159 235.717 96.7892 234.73 96.7892 233.623ZM106.069 233.643C106.069 232.817 105.903 232.097 105.569 231.483C105.236 230.87 104.783 230.403 104.209 230.083C103.649 229.75 103.029 229.583 102.349 229.583C101.669 229.583 101.049 229.743 100.489 230.063C99.9292 230.383 99.4825 230.85 99.1492 231.463C98.8159 232.077 98.6492 232.797 98.6492 233.623C98.6492 234.463 98.8159 235.197 99.1492 235.823C99.4825 236.437 99.9292 236.91 100.489 237.243C101.049 237.563 101.669 237.723 102.349 237.723C103.029 237.723 103.649 237.563 104.209 237.243C104.783 236.91 105.236 236.437 105.569 235.823C105.903 235.197 106.069 234.47 106.069 233.643ZM111.925 226.403C111.578 226.403 111.285 226.283 111.045 226.043C110.805 225.803 110.685 225.51 110.685 225.163C110.685 224.817 110.805 224.523 111.045 224.283C111.285 224.043 111.578 223.923 111.925 223.923C112.258 223.923 112.538 224.043 112.765 224.283C113.005 224.523 113.125 224.817 113.125 225.163C113.125 225.51 113.005 225.803 112.765 226.043C112.538 226.283 112.258 226.403 111.925 226.403ZM112.805 228.183V239.143H110.985V228.183H112.805ZM115.227 233.623C115.227 232.503 115.453 231.523 115.907 230.683C116.36 229.83 116.98 229.17 117.767 228.703C118.567 228.237 119.453 228.003 120.427 228.003C121.387 228.003 122.22 228.21 122.927 228.623C123.633 229.037 124.16 229.557 124.507 230.183V228.183H126.347V239.143H124.507V237.103C124.147 237.743 123.607 238.277 122.887 238.703C122.18 239.117 121.353 239.323 120.407 239.323C119.433 239.323 118.553 239.083 117.767 238.603C116.98 238.123 116.36 237.45 115.907 236.583C115.453 235.717 115.227 234.73 115.227 233.623ZM124.507 233.643C124.507 232.817 124.34 232.097 124.007 231.483C123.673 230.87 123.22 230.403 122.647 230.083C122.087 229.75 121.467 229.583 120.787 229.583C120.107 229.583 119.487 229.743 118.927 230.063C118.367 230.383 117.92 230.85 117.587 231.463C117.253 232.077 117.087 232.797 117.087 233.623C117.087 234.463 117.253 235.197 117.587 235.823C117.92 236.437 118.367 236.91 118.927 237.243C119.487 237.563 120.107 237.723 120.787 237.723C121.467 237.723 122.087 237.563 122.647 237.243C123.22 236.91 123.673 236.437 124.007 235.823C124.34 235.197 124.507 234.47 124.507 233.643ZM145.494 225.203V239.143H143.674V232.823H136.574V239.143H134.754V225.203H136.574V231.323H143.674V225.203H145.494ZM147.922 233.623C147.922 232.503 148.149 231.523 148.602 230.683C149.055 229.83 149.675 229.17 150.462 228.703C151.262 228.237 152.149 228.003 153.122 228.003C154.082 228.003 154.915 228.21 155.622 228.623C156.329 229.037 156.855 229.557 157.202 230.183V228.183H159.042V239.143H157.202V237.103C156.842 237.743 156.302 238.277 155.582 238.703C154.875 239.117 154.049 239.323 153.102 239.323C152.129 239.323 151.249 239.083 150.462 238.603C149.675 238.123 149.055 237.45 148.602 236.583C148.149 235.717 147.922 234.73 147.922 233.623ZM157.202 233.643C157.202 232.817 157.035 232.097 156.702 231.483C156.369 230.87 155.915 230.403 155.342 230.083C154.782 229.75 154.162 229.583 153.482 229.583C152.802 229.583 152.182 229.743 151.622 230.063C151.062 230.383 150.615 230.85 150.282 231.463C149.949 232.077 149.782 232.797 149.782 233.623C149.782 234.463 149.949 235.197 150.282 235.823C150.615 236.437 151.062 236.91 151.622 237.243C152.182 237.563 152.802 237.723 153.482 237.723C154.162 237.723 154.782 237.563 155.342 237.243C155.915 236.91 156.369 236.437 156.702 235.823C157.035 235.197 157.202 234.47 157.202 233.643ZM167.458 227.983C168.791 227.983 169.871 228.39 170.698 229.203C171.524 230.003 171.938 231.163 171.938 232.683V239.143H170.138V232.943C170.138 231.85 169.864 231.017 169.318 230.443C168.771 229.857 168.024 229.563 167.078 229.563C166.118 229.563 165.351 229.863 164.778 230.463C164.218 231.063 163.938 231.937 163.938 233.083V239.143H162.118V228.183H163.938V229.743C164.298 229.183 164.784 228.75 165.398 228.443C166.024 228.137 166.711 227.983 167.458 227.983ZM174.231 233.623C174.231 232.503 174.457 231.523 174.911 230.683C175.364 229.83 175.984 229.17 176.771 228.703C177.571 228.237 178.464 228.003 179.451 228.003C180.304 228.003 181.097 228.203 181.831 228.603C182.564 228.99 183.124 229.503 183.511 230.143V224.343H185.351V239.143H183.511V237.083C183.151 237.737 182.617 238.277 181.911 238.703C181.204 239.117 180.377 239.323 179.431 239.323C178.457 239.323 177.571 239.083 176.771 238.603C175.984 238.123 175.364 237.45 174.911 236.583C174.457 235.717 174.231 234.73 174.231 233.623ZM183.511 233.643C183.511 232.817 183.344 232.097 183.011 231.483C182.677 230.87 182.224 230.403 181.651 230.083C181.091 229.75 180.471 229.583 179.791 229.583C179.111 229.583 178.491 229.743 177.931 230.063C177.371 230.383 176.924 230.85 176.591 231.463C176.257 232.077 176.091 232.797 176.091 233.623C176.091 234.463 176.257 235.197 176.591 235.823C176.924 236.437 177.371 236.91 177.931 237.243C178.491 237.563 179.111 237.723 179.791 237.723C180.471 237.723 181.091 237.563 181.651 237.243C182.224 236.91 182.677 236.437 183.011 235.823C183.344 235.197 183.511 234.47 183.511 233.643ZM190.246 224.343V239.143H188.426V224.343H190.246ZM203.348 233.243C203.348 233.59 203.328 233.957 203.288 234.343H194.528C194.595 235.423 194.961 236.27 195.628 236.883C196.308 237.483 197.128 237.783 198.088 237.783C198.875 237.783 199.528 237.603 200.048 237.243C200.581 236.87 200.955 236.377 201.168 235.763H203.128C202.835 236.817 202.248 237.677 201.368 238.343C200.488 238.997 199.395 239.323 198.088 239.323C197.048 239.323 196.115 239.09 195.288 238.623C194.475 238.157 193.835 237.497 193.368 236.643C192.901 235.777 192.668 234.777 192.668 233.643C192.668 232.51 192.895 231.517 193.348 230.663C193.801 229.81 194.435 229.157 195.248 228.703C196.075 228.237 197.021 228.003 198.088 228.003C199.128 228.003 200.048 228.23 200.848 228.683C201.648 229.137 202.261 229.763 202.688 230.563C203.128 231.35 203.348 232.243 203.348 233.243ZM201.468 232.863C201.468 232.17 201.315 231.577 201.008 231.083C200.701 230.577 200.281 230.197 199.748 229.943C199.228 229.677 198.648 229.543 198.008 229.543C197.088 229.543 196.301 229.837 195.648 230.423C195.008 231.01 194.641 231.823 194.548 232.863H201.468Z" fill="#595959"/>
<path d="M82.3212 97.4278C80.6572 96.5958 79.8252 95.2838 79.8252 93.4918C79.8252 92.6278 80.0412 91.8358 80.4732 91.1158C80.9052 90.3958 81.5532 89.8278 82.4172 89.4118C83.2812 88.9798 84.3372 88.7638 85.5852 88.7638C86.8172 88.7638 87.8652 88.9798 88.7292 89.4118C89.6092 89.8278 90.2652 90.3958 90.6972 91.1158C91.1292 91.8358 91.3452 92.6278 91.3452 93.4918C91.3452 94.3878 91.1132 95.1798 90.6492 95.8678C90.2012 96.5398 89.6012 97.0598 88.8492 97.4278C89.7612 97.7638 90.4812 98.3158 91.0092 99.0838C91.5372 99.8358 91.8012 100.724 91.8012 101.748C91.8012 102.788 91.5372 103.708 91.0092 104.508C90.4812 105.308 89.7452 105.924 88.8012 106.356C87.8572 106.788 86.7852 107.004 85.5852 107.004C84.3852 107.004 83.3132 106.788 82.3692 106.356C81.4412 105.924 80.7132 105.308 80.1852 104.508C79.6572 103.708 79.3932 102.788 79.3932 101.748C79.3932 100.708 79.6572 99.8118 80.1852 99.0598C80.7132 98.3078 81.4252 97.7638 82.3212 97.4278ZM88.7292 93.8278C88.7292 92.9318 88.4492 92.2438 87.8892 91.7638C87.3292 91.2838 86.5612 91.0438 85.5852 91.0438C84.6252 91.0438 83.8652 91.2838 83.3052 91.7638C82.7452 92.2438 82.4652 92.9398 82.4652 93.8518C82.4652 94.6518 82.7532 95.3078 83.3292 95.8198C83.9212 96.3158 84.6732 96.5638 85.5852 96.5638C86.4972 96.5638 87.2492 96.3078 87.8412 95.7958C88.4332 95.2838 88.7292 94.6278 88.7292 93.8278ZM85.5852 98.6278C84.5292 98.6278 83.6652 98.8918 82.9932 99.4198C82.3372 99.9318 82.0092 100.676 82.0092 101.652C82.0092 102.564 82.3292 103.308 82.9692 103.884C83.6092 104.444 84.4812 104.724 85.5852 104.724C86.6732 104.724 87.5292 104.436 88.1532 103.86C88.7932 103.284 89.1132 102.548 89.1132 101.652C89.1132 100.692 88.7852 99.9478 88.1292 99.4198C87.4892 98.8918 86.6412 98.6278 85.5852 98.6278ZM105.954 91.4278H97.9139V96.2038C98.2499 95.7558 98.7459 95.3798 99.4019 95.0758C100.074 94.7718 100.786 94.6198 101.538 94.6198C102.882 94.6198 103.97 94.9078 104.802 95.4838C105.65 96.0598 106.25 96.7878 106.602 97.6678C106.97 98.5478 107.154 99.4758 107.154 100.452C107.154 101.636 106.922 102.692 106.458 103.62C106.01 104.532 105.33 105.252 104.418 105.78C103.522 106.308 102.418 106.572 101.106 106.572C99.3619 106.572 97.9619 106.14 96.9059 105.276C95.8499 104.412 95.2179 103.268 95.0099 101.844H97.6739C97.8499 102.596 98.2419 103.196 98.8499 103.644C99.4579 104.076 100.218 104.292 101.13 104.292C102.266 104.292 103.114 103.948 103.674 103.26C104.25 102.572 104.538 101.66 104.538 100.524C104.538 99.3718 104.25 98.4918 103.674 97.8838C103.098 97.2598 102.25 96.9478 101.13 96.9478C100.346 96.9478 99.6819 97.1478 99.1379 97.5478C98.6099 97.9318 98.2259 98.4598 97.9859 99.1318H95.3939V89.0278H105.954V91.4278ZM109.57 93.2998C109.57 92.1318 109.906 91.2198 110.578 90.5638C111.266 89.8918 112.146 89.5558 113.218 89.5558C114.29 89.5558 115.162 89.8918 115.834 90.5638C116.522 91.2198 116.866 92.1318 116.866 93.2998C116.866 94.4678 116.522 95.3878 115.834 96.0598C115.162 96.7318 114.29 97.0678 113.218 97.0678C112.146 97.0678 111.266 96.7318 110.578 96.0598C109.906 95.3878 109.57 94.4678 109.57 93.2998ZM124.21 89.8678L114.634 106.572H111.946L121.522 89.8678H124.21ZM113.218 91.2118C112.21 91.2118 111.706 91.9078 111.706 93.2998C111.706 94.7078 112.21 95.4118 113.218 95.4118C113.698 95.4118 114.066 95.2438 114.322 94.9078C114.594 94.5558 114.73 94.0198 114.73 93.2998C114.73 91.9078 114.226 91.2118 113.218 91.2118ZM119.338 103.116C119.338 101.948 119.674 101.036 120.346 100.38C121.034 99.7078 121.914 99.3718 122.986 99.3718C124.042 99.3718 124.906 99.7078 125.578 100.38C126.266 101.036 126.61 101.948 126.61 103.116C126.61 104.284 126.266 105.204 125.578 105.876C124.906 106.548 124.042 106.884 122.986 106.884C121.914 106.884 121.034 106.548 120.346 105.876C119.674 105.204 119.338 104.284 119.338 103.116ZM122.962 101.028C121.954 101.028 121.45 101.724 121.45 103.116C121.45 104.508 121.954 105.204 122.962 105.204C123.97 105.204 124.474 104.508 124.474 103.116C124.474 101.724 123.97 101.028 122.962 101.028Z" fill="#595959"/>
<mask id="path-3-inside-1_2054_394" fill="white">
<path d="M201.501 98.5718C201.501 153.011 157.369 197.144 102.929 197.144C48.4895 197.144 4.35742 153.011 4.35742 98.5718C4.35742 44.1321 48.4895 0 102.929 0C157.369 0 201.501 44.1321 201.501 98.5718ZM27.0244 98.5718C27.0244 140.493 61.0081 174.477 102.929 174.477C144.85 174.477 178.834 140.493 178.834 98.5718C178.834 56.6507 144.85 22.667 102.929 22.667C61.0081 22.667 27.0244 56.6507 27.0244 98.5718Z"/>
</mask>
<path d="M201.501 98.5718C201.501 153.011 157.369 197.144 102.929 197.144C48.4895 197.144 4.35742 153.011 4.35742 98.5718C4.35742 44.1321 48.4895 0 102.929 0C157.369 0 201.501 44.1321 201.501 98.5718ZM27.0244 98.5718C27.0244 140.493 61.0081 174.477 102.929 174.477C144.85 174.477 178.834 140.493 178.834 98.5718C178.834 56.6507 144.85 22.667 102.929 22.667C61.0081 22.667 27.0244 56.6507 27.0244 98.5718Z" fill="white" stroke="black" stroke-opacity="0.2" stroke-width="2" mask="url(#path-3-inside-1_2054_394)"/>
<path d="M201.433 94.8985C202.258 117.024 195.61 138.783 182.56 156.67C169.51 174.556 150.818 187.528 129.496 193.496C108.174 199.463 85.4645 198.079 65.0257 189.565C44.587 181.051 27.6098 165.904 16.8298 146.564C6.04973 127.225 2.09471 104.819 5.60197 82.9575C9.10924 61.0959 19.8745 41.0518 36.1632 26.0549C52.4518 11.058 73.3152 1.98174 95.3915 0.288626C117.468 -1.40449 139.471 4.38415 157.856 16.7218L141.054 41.7604C128.293 33.1969 113.02 29.1791 97.6973 30.3543C82.3744 31.5294 67.8933 37.8292 56.5875 48.2384C45.2816 58.6477 37.8095 72.5601 35.3752 87.734C32.9408 102.908 35.686 118.46 43.1683 131.883C50.6506 145.306 62.4343 155.82 76.6207 161.729C90.8071 167.639 106.57 168.6 121.369 164.458C136.168 160.316 149.142 151.312 158.2 138.897C167.258 126.482 171.872 111.379 171.3 96.0222L201.433 94.8985Z" fill="#0B6D93"/>
</svg>
