<svg width="197" height="56" viewBox="0 0 197 56" fill="none" xmlns="http://www.w3.org/2000/svg">
<g clip-path="url(#clip0_220_1631)">
<path d="M96.6731 3.44231H101.442V18.4412C101.442 21.0845 100.637 23.113 98.9644 24.4654C95.1867 27.2316 90.1085 27.2316 86.3308 24.4654C84.6587 23.113 83.8536 21.0845 83.8536 18.4412V3.44231H88.6222V18.4412C88.6222 19.978 88.9938 21.023 89.7369 21.6992C91.471 23.0515 93.9482 23.0515 95.6822 21.6992C96.4253 21.023 96.735 19.9165 96.735 18.4412L96.6731 3.44231ZM111.908 12.6015C110.731 12.54 109.554 13.1547 108.997 14.1997V26.1865H104.414V9.28205H108.687L108.811 11.1876C109.988 9.71234 111.846 8.85175 113.704 8.91322C115.128 8.85175 116.552 9.34352 117.605 10.3271C118.596 11.3106 119.092 12.9703 119.092 15.3677V26.1251H114.509V15.4291C114.509 14.3227 114.261 13.585 113.828 13.2162C113.332 12.7859 112.651 12.54 111.908 12.6015ZM122.188 4.91761C122.188 4.3029 122.436 3.68819 122.869 3.2579C123.922 2.3973 125.532 2.3973 126.585 3.2579C127.019 3.68819 127.328 4.3029 127.266 4.91761C127.266 5.53232 127.019 6.14703 126.585 6.57733C125.532 7.43792 123.922 7.43792 122.869 6.57733C122.436 6.14703 122.188 5.53232 122.188 4.91761ZM127.08 9.28205V26.1865H122.498V9.28205H127.08ZM138.909 26.1251C138.042 26.4324 137.113 26.5554 136.184 26.5554C134.884 26.6168 133.645 26.1865 132.592 25.3874C131.725 24.6498 131.292 23.3589 131.292 21.5148V12.6015H128.753V9.28205H131.292V5.10202H135.874V9.28205H138.785V12.6015H135.874V21.0845C135.813 21.5762 135.936 22.1295 136.308 22.4983C136.68 22.7442 137.175 22.8671 137.609 22.8671C137.856 22.8671 138.104 22.8671 138.352 22.8056C138.599 22.8056 138.785 22.7442 138.909 22.7442V26.1251ZM155.382 23.4818C154.701 24.3424 153.896 25.0801 152.905 25.5718C151.605 26.248 150.18 26.5554 148.756 26.5554C146.093 26.5554 143.987 25.7563 142.501 24.158C141.015 22.5598 140.21 20.5312 140.271 18.3797V17.765C140.148 15.4906 140.953 13.2162 142.439 11.495C143.925 9.83528 146.031 8.91322 148.26 9.03616C150.738 9.03616 152.595 9.77381 153.834 11.3106C155.073 12.8474 155.754 14.8759 155.754 17.3347V19.2403H144.916C145.04 20.2239 145.474 21.2074 146.217 21.8836C146.96 22.5598 148.013 22.9286 149.065 22.8671C150.676 22.9286 152.224 22.2524 153.153 20.9615L155.382 23.4818ZM148.198 12.6015C147.331 12.54 146.526 12.9088 145.969 13.585C145.412 14.3227 145.04 15.1833 144.916 16.1053H151.233V15.7365C151.233 14.9374 150.985 14.1382 150.49 13.4621C149.932 12.8474 149.065 12.54 148.198 12.6015ZM168.449 26.248L168.202 24.4654C167.706 25.0801 167.087 25.6333 166.344 26.0021C165.601 26.371 164.734 26.5554 163.867 26.5554C161.885 26.6168 160.027 25.6948 158.974 24.0965C157.736 22.2524 157.116 20.1009 157.24 17.9494V17.6421C157.24 15.0603 157.798 12.9703 158.974 11.3721C160.089 9.77381 161.947 8.91322 163.929 8.97469C165.539 8.91322 167.025 9.5894 168.016 10.8188V2.21289H172.599V26.248H168.449ZM161.761 17.9494C161.699 19.1174 161.947 20.3468 162.504 21.3918C163 22.3139 163.991 22.9286 165.043 22.8056C166.282 22.8671 167.459 22.1909 168.016 21.0845V14.3841C167.52 13.2777 166.344 12.54 165.043 12.6015C163.991 12.54 163 13.0932 162.504 14.0768C161.947 15.1833 161.699 16.4127 161.761 17.6421V17.9494ZM102.68 30.6739V53.4796H97.9736L88.7461 38.4193V53.4796H83.9775V30.6739H88.7461L97.9736 45.7343V30.6739H102.68ZM115.995 53.4796C115.747 52.9879 115.624 52.4961 115.562 51.9429C115.066 52.4961 114.509 52.9264 113.828 53.2337C113.022 53.6026 112.155 53.787 111.227 53.787C109.74 53.8485 108.254 53.2952 107.139 52.3732C106.024 51.4511 105.467 50.1602 105.467 48.7464C105.405 47.1481 106.148 45.5499 107.449 44.6278C108.749 43.6443 110.731 43.1525 113.332 43.1525H115.376V42.169C115.438 41.4928 115.19 40.8166 114.756 40.2634C114.261 39.7716 113.58 39.5257 112.837 39.5872C111.227 39.5872 110.421 40.2634 110.421 41.6157H105.839C105.839 40.1404 106.582 38.7266 107.82 37.8046C109.369 36.6981 111.227 36.1448 113.084 36.2063C114.818 36.1448 116.552 36.6366 117.977 37.6816C119.277 38.6651 119.897 40.1404 119.897 42.169V49.2996C119.897 50.0987 119.959 50.8364 120.082 51.6355C120.206 52.1887 120.33 52.6805 120.578 53.1723V53.4796H115.995ZM112.217 50.3446C112.899 50.3446 113.58 50.1602 114.199 49.8528C114.695 49.607 115.066 49.1767 115.376 48.7464V45.7958H113.518C112.589 45.7343 111.598 45.9802 110.855 46.5334C110.298 47.0252 109.988 47.7014 109.988 48.3775C109.988 48.9308 110.174 49.4226 110.545 49.7914C111.041 50.1602 111.66 50.3446 112.217 50.3446ZM131.601 53.3567C131.168 53.4796 130.796 53.6026 130.363 53.664C129.867 53.7255 129.372 53.787 128.876 53.787C127.576 53.8485 126.337 53.4182 125.285 52.619C124.418 51.8814 123.984 50.5905 123.984 48.7464V39.8331H121.445V36.5137H123.984V32.3336H128.567V36.5137H131.477V39.8331H128.567V48.3161C128.505 48.8078 128.629 49.3611 129 49.7299C129.372 49.9758 129.867 50.0987 130.301 50.0987C130.549 50.0987 130.796 50.0987 131.044 50.0373C131.292 50.0373 131.477 49.9758 131.601 49.9758V53.3567ZM133.521 32.1492C133.521 31.5345 133.769 30.9198 134.202 30.4895C135.255 29.6289 136.865 29.6289 137.918 30.4895C138.847 31.4116 138.847 32.8869 137.918 33.8704C136.865 34.731 135.255 34.731 134.202 33.8704C133.707 33.3786 133.459 32.7639 133.521 32.1492ZM138.352 36.5137V53.4796H133.769V36.5137H138.352ZM140.953 45.1811V44.8737C140.891 42.6608 141.634 40.4478 143.058 38.7266C144.483 37.0669 146.464 36.2678 149.004 36.2678C151.605 36.2678 153.586 37.0669 155.011 38.7266C156.435 40.4478 157.178 42.6608 157.116 44.8737V45.1811C157.178 47.394 156.435 49.607 155.011 51.3282C153.586 52.9879 151.605 53.787 149.065 53.787C146.464 53.787 144.483 52.9879 143.058 51.3282C141.634 49.607 140.891 47.394 140.953 45.1811ZM145.535 44.8122V45.1196C145.474 46.349 145.783 47.5784 146.341 48.6234C147.331 50.0987 149.375 50.529 150.861 49.5455C151.233 49.2996 151.543 48.9923 151.79 48.6234C152.348 47.517 152.595 46.349 152.595 45.1196V44.8122C152.657 43.5828 152.348 42.4149 151.79 41.3084C151.233 40.3249 150.18 39.7102 149.065 39.8331C147.951 39.7716 146.898 40.3249 146.341 41.3084C145.783 42.4149 145.474 43.6443 145.535 44.8122ZM166.901 39.8946C165.725 39.8331 164.548 40.4478 163.991 41.5543V53.4796H159.408V36.5137H163.681L163.867 38.4807C165.043 37.0054 166.839 36.1448 168.759 36.2063C170.245 36.1448 171.67 36.6366 172.723 37.6201C173.713 38.6037 174.209 40.2634 174.209 42.6608V53.4796H169.626V42.6608C169.626 41.5543 169.378 40.8166 168.945 40.4478C168.326 40.0175 167.582 39.8331 166.901 39.8946ZM186.471 48.7464C186.471 48.2546 186.223 47.7628 185.79 47.517C184.923 47.0252 183.932 46.7178 183.003 46.5949C181.455 46.2875 179.968 45.7343 178.668 44.8737C177.553 44.1361 176.872 42.8452 176.934 41.4928C176.934 40.079 177.615 38.7266 178.73 37.8046C179.968 36.7595 181.578 36.2063 183.746 36.2063C185.914 36.2063 187.71 36.6981 189.01 37.7431C190.249 38.6651 190.93 40.1404 190.93 41.6772H186.347C186.347 41.0625 186.161 40.5093 185.728 40.079C185.17 39.6487 184.489 39.4028 183.746 39.4643C183.127 39.4028 182.507 39.5872 181.95 39.956C181.578 40.2634 181.331 40.7552 181.331 41.2469C181.331 41.7387 181.578 42.2305 182.012 42.4763C182.755 42.9066 183.622 43.1525 184.489 43.2755C186.099 43.5828 187.648 44.1361 189.072 44.9352C190.311 45.6728 190.93 46.9022 190.93 48.562C190.93 50.0373 190.187 51.3896 189.01 52.2502C187.71 53.2337 185.975 53.7255 183.746 53.7255C181.393 53.7255 179.535 53.1108 178.296 51.8814C177.12 50.8979 176.438 49.484 176.376 48.0087H180.711C180.711 48.7464 181.083 49.484 181.702 49.9143C182.322 50.2831 183.065 50.529 183.87 50.4676C185.542 50.5905 186.471 49.9758 186.471 48.7464Z" fill="white"/>
<path d="M59.6392 51.0823C57.8432 51.9429 55.8615 52.1888 53.8797 51.7585C52.5173 51.4511 51.2787 51.0208 50.0401 50.4676L47.3152 49.3611C44.9619 48.6235 42.4228 48.562 40.0075 49.1767H39.7598C37.3445 48.5005 34.8054 48.562 32.4521 49.3611C31.5232 49.6685 30.6562 50.0988 29.7272 50.4676C28.4886 51.0208 27.1881 51.5126 25.8876 51.82C23.9678 52.2502 21.9241 52.0044 20.1281 51.1438L19.8804 51.0208C19.8185 51.0208 19.8185 51.0208 19.8185 51.0823C20.9951 52.3117 22.5434 53.1723 24.1536 53.6026C25.2683 53.91 26.4449 53.9714 27.5597 53.8485C29.2937 53.6026 30.9658 52.9879 32.3902 52.0044L34.9912 50.2832C35.9821 49.6685 37.1588 49.4226 38.2735 49.6685C38.8928 49.7299 38.3974 50.0373 38.3354 50.0988C36.7872 50.8364 35.3009 51.7585 33.9384 52.8035C33.0095 53.4797 31.3374 55.0779 31.3374 55.0779L32.576 56.1229L33.9384 54.6476C35.6105 52.9264 37.5303 51.4511 39.6359 50.2832C39.8217 50.1602 40.0075 50.1602 40.1933 50.2832C42.2989 51.4511 44.2187 52.9264 45.8908 54.6476L47.2533 56.1229L48.4919 55.0779L45.8908 52.8035C44.5284 51.7585 43.0421 50.8364 41.4938 50.0988C41.37 50.0373 40.9365 49.7299 41.5558 49.6685C42.6705 49.4226 43.8472 49.6685 44.838 50.2832L47.4391 52.0044C48.8635 52.9879 50.5356 53.6026 52.2696 53.8485C53.3843 53.9714 54.561 53.91 55.6757 53.6026C57.2859 53.1108 58.8341 52.2502 60.0108 51.0823C60.0108 51.0823 59.9488 51.0208 59.8869 51.0208L59.6392 51.0823ZM65.7083 45.7343C64.9032 46.349 64.0362 46.7793 63.1073 47.0867C61.8067 47.4555 60.3824 47.7014 59.0199 47.7014C57.2239 47.7629 55.4899 47.8858 53.694 48.1317C53.5701 48.1317 53.5082 48.1317 53.5701 48.0702C55.1183 47.4555 56.3569 46.2261 57.0382 44.7508L58.7722 41.247C58.7722 41.1855 58.7722 41.1855 58.7722 41.124C58.6483 41.1855 56.9143 42.6608 56.1092 43.3984L53.1985 46.2261C51.898 47.3326 50.3498 48.1317 48.6777 48.562H48.6157L48.5538 48.6235L51.898 49.4226C53.3224 49.8529 54.8087 50.0988 56.295 50.2217C60.0727 50.5905 63.7266 48.8693 65.8322 45.7958C65.8322 45.7343 65.7702 45.7343 65.7083 45.7343ZM71.1581 37.4972C70.2911 38.5422 69.2383 39.4643 68.0616 40.2019C67.0708 40.8781 66.0179 41.4314 64.9032 41.9231C63.4788 42.4764 62.1783 43.2755 61.0017 44.1976L60.7539 44.382C60.692 44.382 60.692 44.382 60.692 44.3205C60.692 44.259 62.5499 42.4149 63.1073 38.5422C63.1692 37.1284 63.4169 35.776 63.7266 34.4237C63.7266 34.3622 63.7266 34.3622 63.7266 34.3007C62.426 35.899 61.4352 37.6816 60.7539 39.5872L59.6392 42.7223C59.2057 44.1361 58.4006 45.427 57.3478 46.472L57.2239 46.5949V46.6564C57.3478 46.6564 57.4717 46.5949 57.5955 46.5949L61.1874 45.8573C63.1692 45.5499 65.0271 44.7508 66.6372 43.5828C68.3093 42.4149 69.6099 40.8167 70.5388 39.034C70.7865 38.5422 70.9723 38.0505 71.1581 37.5587C71.282 37.4358 71.22 37.4358 71.1581 37.4972ZM73.5114 28.2766C72.9541 29.9363 71.9632 31.4731 70.6627 32.7025C69.1764 34.1163 67.8139 35.7146 66.5753 37.3128C66.5753 37.3743 66.4515 37.3128 66.5134 37.2513C67.0088 35.5916 67.1327 33.809 66.885 32.0263C66.6372 30.551 66.0179 28.9528 65.8322 27.1701L65.7702 27.1086C65.7702 27.1701 65.7083 27.2316 65.7083 27.2931C65.3367 28.461 65.089 29.629 64.9651 30.8584C64.9032 32.3337 65.1509 34.2393 65.0271 35.7146C64.9032 37.4358 64.7794 39.2184 63.9743 40.7552C63.9743 40.8167 63.9743 40.8167 63.9743 40.8781L67.69 38.6037C69.2383 37.6202 70.5388 36.3907 71.5916 34.9154C72.9541 33.0099 73.6353 30.7969 73.6353 28.461C73.6353 28.3995 73.6353 28.2766 73.6353 28.2151C73.5734 28.2151 73.5114 28.2766 73.5114 28.2766Z" fill="white"/>
<path d="M69.5479 29.2601C69.6098 29.2601 69.6098 29.2601 69.5479 29.2601C69.5479 28.7684 69.5479 28.2766 69.486 27.7848C69.3621 26.0636 68.3093 24.6498 67.3804 23.1745C66.7611 22.2524 66.2037 21.2689 65.7083 20.2239C65.7083 20.2239 65.6463 20.1624 65.5844 20.1624C65.5844 20.2854 65.5844 20.8386 65.6463 21.146C65.956 23.6048 66.5753 26.0636 67.5042 28.3995C68.0616 29.8748 68.2474 31.4116 68.1235 32.9484C68.1235 33.0713 68.1235 33.0713 68.1854 33.1328C68.7428 32.3337 69.8575 31.2272 70.5388 30.3666C71.22 29.506 74.9358 25.326 73.1398 19.5477C73.0779 19.3018 72.954 19.056 72.8302 18.8101L72.7682 18.8715C72.7682 23.0516 70.7246 24.8342 69.9195 27.6619C69.7337 28.3381 69.6098 28.8298 69.5479 29.2601ZM69.6098 20.6542L69.2382 19.6707L68.9905 19.1174C68.3712 18.011 67.5042 17.0274 66.4514 16.2898C65.5844 15.5521 64.8412 14.753 64.222 13.8309C64.222 13.8309 64.16 13.8309 64.0981 13.8309H64.0362C64.0981 14.0153 64.6555 15.8595 65.027 16.7201C65.6463 17.888 66.3895 19.056 67.2565 20.0395L67.4423 20.2854C68.4951 21.6992 69.3002 23.236 69.8575 24.8957C69.8575 24.9572 69.9195 24.9572 69.9195 24.9572L70.9723 21.7607C71.3438 20.6542 71.6535 19.4862 71.9012 18.3183C72.2728 15.5521 71.4058 12.0483 69.7956 10.0812C69.7956 10.0812 69.7337 10.1427 69.7337 10.2041L69.7956 10.45L69.9195 10.8189C70.2291 12.2942 70.291 13.8924 69.9814 15.3677C69.7337 16.5356 69.6717 17.7651 69.6717 18.9945C69.6717 19.1789 69.7956 20.7157 69.7956 20.7771C69.7956 20.8386 69.7337 20.7771 69.6717 20.7771M64.6555 5.225C65.1509 5.71677 65.5844 6.27001 65.8321 6.94619C66.2656 7.99119 66.3895 9.52796 66.6991 10.6959L67.2565 12.7245C67.2565 12.7859 67.1946 12.8474 67.1326 12.7859C66.2037 11.6794 65.089 10.7574 63.7884 10.0197C62.9214 9.52796 62.2402 8.85178 61.6209 8.11413L61.3113 7.68384C61.3113 7.68384 61.2493 7.62236 61.1874 7.68384C61.1874 7.74531 61.1874 7.80678 61.1874 7.86825C61.497 9.22061 62.1163 10.5115 63.1072 11.5565C63.9123 12.2942 64.7793 12.9703 65.5844 13.6465C66.6372 14.5071 67.6281 15.5521 68.557 16.5971C68.557 16.5971 68.6189 16.6586 68.6189 16.5971V15.6136L68.6809 12.663V11.6794C68.6809 10.6959 68.4951 9.65091 68.1235 8.72884C67.5042 7.19207 66.3276 5.96265 64.9032 5.225C64.8412 5.16353 64.7174 5.16353 64.5935 5.10206C64.5935 5.10206 64.5935 5.16353 64.6555 5.225ZM58.2767 2.33587C59.1437 3.13499 59.8869 4.05705 60.5681 5.04059C61.1874 6.02412 61.8686 6.88471 62.7356 7.68384C63.293 8.23707 64.9651 9.52796 65.3986 9.89679C65.3367 9.40502 64.5316 5.90118 62.3641 4.17999C61.1255 3.19646 59.6392 2.45881 58.0909 2.08998C58.0909 2.15145 58.0909 2.15145 58.0909 2.21292L58.2767 2.33587ZM23.5961 50.2217C25.0205 50.0988 26.5068 49.8529 27.8693 49.4226L31.2135 48.6235H31.2754C31.2754 48.6235 31.2754 48.562 31.2135 48.562H31.1516C29.4795 48.1317 27.9312 47.3326 26.5688 46.2261L23.6581 43.4599L20.9951 41.1855V41.3084C21.2428 41.6772 22.1718 43.7058 22.7291 44.8123C23.4104 46.349 24.6489 47.517 26.1972 48.1317C26.2591 48.1932 26.1972 48.1932 26.0733 48.1932C24.3393 47.9473 22.5433 47.8243 20.7474 47.7629C19.3849 47.7629 17.9606 47.517 16.66 47.1482C15.7311 46.8408 14.8641 46.4105 14.059 45.7958C13.9971 45.7958 13.9971 45.7958 13.9351 45.7958C15.1737 47.517 16.9078 48.8693 18.8895 49.607C20.4377 50.0988 21.986 50.2832 23.5961 50.2217ZM22.1718 46.5949C22.2956 46.5949 22.3576 46.6564 22.5433 46.6564V46.5949L22.4195 46.472C21.3667 45.427 20.6235 44.1361 20.1281 42.7223L19.0134 39.5872C18.3321 37.6816 17.3413 35.899 16.0407 34.3007C16.0407 34.3622 16.0407 34.3622 16.0407 34.4237C16.4123 35.776 16.5981 37.1284 16.722 38.5422C17.2793 42.3534 19.1372 44.1976 19.1372 44.259C19.1372 44.3205 19.1372 44.382 19.0753 44.3205L18.8276 44.1361C17.6509 43.214 16.3504 42.4149 14.926 41.8617C13.8113 41.3699 12.7585 40.8167 11.7676 40.1405C10.5909 39.4028 9.53813 38.4808 8.67112 37.4358H8.60919C8.79498 37.9275 8.98077 38.4193 9.22848 38.9111C10.1574 40.6937 11.5199 42.292 13.192 43.4599C14.8021 44.6893 16.66 45.4884 18.6418 45.7343C19.8184 46.0417 20.9951 46.349 22.1718 46.5949ZM12.2011 38.6037L15.9169 40.8781C15.9169 40.8781 15.9788 40.8167 15.9788 40.7552C15.1737 39.1569 15.0499 37.4358 14.926 35.7146C14.8021 34.1778 15.0499 32.3337 14.9879 30.8584C14.8641 29.629 14.6164 28.3995 14.2448 27.2316C14.2448 27.1701 14.1829 27.1086 14.1829 27.0472L14.1209 27.1086C13.9971 28.8913 13.3158 30.4895 13.0681 31.9648C12.8204 33.686 12.9443 35.4687 13.4397 37.1899C13.5016 37.2513 13.3778 37.3128 13.3778 37.2513C12.1392 35.5916 10.7767 34.0549 9.29041 32.641C7.98989 31.4116 6.99902 29.9363 6.44165 28.2766C6.44165 28.2766 6.37972 28.2151 6.31779 28.2151C6.25586 28.2151 6.31779 28.3381 6.31779 28.461C6.31779 30.7354 6.99902 33.0099 8.36147 34.9155C9.35234 36.3293 10.6529 37.6202 12.2011 38.6037ZM11.5199 33.1943C11.5818 33.1328 11.5818 33.1328 11.5818 33.0099C11.4579 31.4731 11.6437 29.8748 12.263 28.461C13.13 26.1251 13.7493 23.7277 14.1209 21.2074C14.1209 20.9001 14.1829 20.3468 14.1829 20.2239C14.1209 20.2239 14.1209 20.2239 14.1209 20.2854C13.6255 21.3304 13.0681 22.3139 12.4488 23.236C11.4579 24.5883 10.4671 26.0636 10.3432 27.7848C10.2813 28.2766 10.2813 28.7684 10.3432 29.2601C10.3432 29.2601 10.3432 29.3216 10.2813 29.3216C10.2813 29.3216 10.2813 29.3216 10.2813 29.2601L9.84778 27.7848C8.98077 24.9572 6.99902 23.1745 6.99902 18.9945L6.93709 18.933C6.81323 19.1789 6.7513 19.4248 6.62744 19.6707C4.83148 25.4489 8.48533 29.629 9.22848 30.4895C9.97164 31.3501 10.9625 32.3951 11.5199 33.1943ZM8.91884 21.6992L9.97164 24.8957C9.97164 24.8957 10.0336 24.8957 10.0336 24.8342C10.5909 23.1745 11.4579 21.6377 12.4488 20.2239L12.6346 19.978C13.5016 18.933 14.2448 17.8265 14.8641 16.6586C15.2357 15.798 15.793 13.9539 15.8549 13.7695H15.793C15.7311 13.7695 15.7311 13.7695 15.6692 13.7695C15.0499 14.6915 14.3067 15.4906 13.4397 16.2283C12.3869 16.9659 11.4579 17.9495 10.8387 19.1174C10.7767 19.3018 10.6529 19.4863 10.5909 19.6707L10.2194 20.7157C10.2194 20.7157 10.1574 20.8386 10.1574 20.7157C10.1574 20.5927 10.2813 19.1789 10.2813 18.933C10.2813 17.7036 10.1574 16.4742 9.90971 15.3062C9.60006 13.7695 9.66199 12.2327 9.97164 10.7574C9.97164 10.6344 10.0336 10.5115 10.0955 10.3886C10.0955 10.3271 10.1574 10.2041 10.1574 10.1427C10.1574 10.0812 10.1574 10.0812 10.0955 10.0197C8.48533 11.9868 7.55639 15.5521 7.92796 18.2568C8.23761 19.4248 8.54726 20.5927 8.91884 21.6992ZM11.1483 12.7245L11.2102 15.6751V16.5971H11.2722C12.1392 15.4906 13.13 14.5071 14.1829 13.585L16.66 11.495C17.6509 10.45 18.2702 9.15914 18.5799 7.80678C18.5799 7.74531 18.5799 7.68384 18.5799 7.62236H18.5179L18.2083 8.05266C17.6509 8.79031 16.9078 9.46649 16.1027 9.95826C14.6164 10.8803 13.6255 11.5565 12.7585 12.7245C12.6965 12.7859 12.6346 12.7859 12.6965 12.663L13.2539 10.6344C13.5636 9.46649 13.6874 7.92972 14.1209 6.88471C14.3686 6.27001 14.8021 5.6553 15.2976 5.16353C15.2976 5.10206 15.2976 5.10206 15.2976 5.04059C15.1737 5.04059 15.1118 5.10206 14.9879 5.16353C13.4397 5.96265 12.325 7.25354 11.7057 8.72884C11.3341 9.65091 11.0864 10.6344 11.1483 11.6794V12.7245ZM14.4306 9.83532L17.1555 7.62236C17.9606 6.82324 18.7037 5.96265 19.323 4.97912C19.9423 3.99558 20.7474 3.07352 21.6144 2.2744L21.8002 2.08998C21.8002 2.02851 21.8002 2.02851 21.8002 1.96704C20.2519 2.33587 18.7656 3.01205 17.527 4.05705C15.2357 5.83971 14.4925 9.34355 14.4306 9.83532ZM39.3263 28.8913C39.512 28.6454 39.0785 28.461 38.9547 28.8913C38.8308 29.3216 39.1405 29.1987 39.3263 28.8913ZM44.0329 18.0724C43.8471 18.0109 43.1659 18.8101 43.2898 18.933C43.5994 18.7486 43.8471 18.4412 44.0329 18.0724ZM44.1568 17.9495C44.2806 18.011 44.7141 17.7651 44.6522 17.7036C44.5903 17.6421 44.0329 17.3962 44.0329 17.5192C44.0329 17.7651 44.0948 17.888 44.1568 17.9495ZM52.5173 25.5719C52.765 25.5104 52.703 25.1416 52.5173 25.1416C52.3315 25.1416 52.0838 25.4489 52.1457 25.4489C52.2076 25.4489 52.3934 25.6333 52.5173 25.5719ZM49.4827 17.3962C49.2969 17.3962 49.235 17.5807 49.4208 17.7036C49.6066 17.7651 49.7304 17.7036 49.8543 17.6421C49.9781 17.5807 50.102 17.4577 50.102 17.2733C50.102 17.0889 49.8543 16.843 49.9781 16.7201C50.102 16.5971 50.2878 16.7815 50.4117 16.7201C50.5355 16.6586 50.5974 16.5356 50.5974 16.4127C50.5974 16.2898 50.5355 15.9209 50.2878 15.9209C50.0401 15.9209 49.7924 16.4127 49.7924 16.4127C49.7304 16.5356 49.7304 16.7201 49.7924 16.843C49.8543 17.0889 49.7924 17.3962 49.4827 17.3962Z" fill="white"/>
<path d="M53.5701 17.4576C53.5701 17.5806 53.8797 18.3797 53.9417 18.5641C54.0036 18.7485 54.0655 19.4247 54.1894 19.3632C54.3132 19.3018 54.3132 18.9329 54.2513 18.7485C54.1894 18.3182 54.0655 17.8265 53.9417 17.4576C53.8797 17.2117 53.4462 16.2897 53.3224 16.3512C53.1985 16.4126 53.5082 16.9659 53.5701 17.2117C53.632 17.4576 53.5082 17.3347 53.5701 17.4576ZM51.4026 7.00757C51.5883 7.06904 51.5883 6.70022 51.2787 6.45433C50.9691 6.20845 50.4736 6.33139 50.5975 6.45433C50.8452 6.63875 51.0929 6.88463 51.4026 7.00757ZM42.1131 4.36432C41.6796 4.11844 42.0512 3.74961 41.7415 3.50373C41.37 3.38079 40.9984 3.44226 40.7507 3.68814C40.441 4.05697 41.1222 3.93403 41.308 4.05697C41.4938 4.17991 42.1131 4.61021 42.1751 4.54874C42.237 4.48726 42.1751 4.36432 42.1131 4.36432ZM44.5903 3.1349C44.0329 2.88902 41.9893 2.88902 42.0512 3.44226C42.1131 3.9955 43.2279 3.44226 43.5375 3.44226C43.8472 3.44226 45.0857 3.38079 44.5903 3.1349ZM38.9547 26.8627C38.8309 26.8012 38.6451 26.9241 38.5831 26.8012C38.5212 26.6783 38.3973 26.7397 38.3973 26.8012C38.3973 26.8627 38.3354 26.9856 38.4593 27.1086C38.5831 27.2315 38.8309 27.2315 38.9547 27.1086C39.0166 27.0471 39.0166 26.9241 38.9547 26.8627ZM37.7781 22.7441C37.9638 22.7441 37.9638 22.6212 38.0258 22.6212C38.0877 22.6212 38.0258 22.7441 38.2116 22.7441C38.3973 22.7441 38.5831 22.3138 38.0258 22.3138C37.5923 22.3138 37.6542 22.7441 37.7781 22.7441ZM38.5212 23.2359C38.2116 23.1744 38.2735 23.3588 38.0258 23.3588C37.6542 23.4203 37.9638 23.113 37.84 22.99C37.7781 22.9285 37.5923 23.2359 37.5303 23.4203C37.5303 23.5432 37.5303 23.7891 37.6542 23.8506L38.8309 23.9735C39.0786 23.9735 38.8309 23.2974 38.5212 23.2359ZM34.6816 27.2315C34.8054 27.2315 34.8674 26.8627 34.8054 26.6783C34.7435 26.4939 34.3719 26.6168 34.3719 26.7397C34.3719 26.8627 34.6196 27.2315 34.6816 27.2315ZM29.7272 27.2315C29.7272 27.1086 29.7272 26.6168 29.6034 26.4939C29.4795 26.3709 29.4795 26.5553 29.4176 26.5553C29.3556 26.5553 29.3556 26.3094 29.2937 26.3094C29.2318 26.3094 29.2937 26.6783 29.4176 26.9241C29.5414 27.17 29.7272 27.5389 29.7272 27.2315ZM29.6034 26.125C29.7272 25.7562 29.7891 25.3874 29.7891 25.0185C29.7891 24.7112 29.6034 24.4653 29.5414 24.4653C29.4795 24.4653 29.5414 24.6497 29.6034 24.9571C29.6034 25.2644 29.4795 25.5718 29.4176 25.8791C29.4176 25.9406 29.5414 26.248 29.6034 26.125Z" fill="white"/>
<path d="M23.2865 39.8946C32.514 49.0537 47.3771 49.0537 56.6046 39.8946C65.8321 30.7354 65.8321 15.9824 56.6046 6.82323C47.3771 -2.33593 32.514 -2.33593 23.2865 6.82323C14.059 15.9824 14.059 30.7969 23.2865 39.8946ZM17.4032 23.8507H20.9951C21.057 25.6948 21.3667 27.4775 21.924 29.1986C21.7382 29.1372 21.5524 29.0757 21.3667 28.9528C21.1189 28.8298 20.9331 29.0142 20.8712 29.0142C20.6235 29.0142 20.3139 28.8298 20.3139 29.0142C20.3139 29.1986 20.5616 29.0757 20.5616 29.1986C20.5616 29.3216 19.9423 29.3216 19.8803 29.0757C19.8184 28.8298 19.6946 28.5839 19.6326 28.8913C19.5707 29.1986 19.323 29.1372 19.1991 29.1986C19.1372 29.2601 19.0753 29.3831 19.0753 29.506C19.0753 29.6289 18.7656 29.5675 18.7656 29.7519C18.7656 29.9363 18.9514 29.9978 19.0133 30.1822C19.0753 30.3666 19.2611 30.4895 19.1372 30.551C19.0133 30.6125 19.0753 30.4895 18.9514 30.551C18.8275 30.6125 19.5088 32.4566 19.6326 32.3951C19.7565 32.3337 19.4468 31.7804 19.4468 31.5345C19.4468 31.2887 19.5088 31.2272 19.6946 31.1042C19.8803 30.9813 20.3758 31.8419 20.5616 31.719C20.7474 31.596 20.4996 31.4731 20.6854 31.4116C20.8712 31.3501 21.4286 32.2107 21.6144 31.9648C21.7382 31.7804 21.8621 32.0878 21.8621 32.1493C22.0479 32.4566 22.3575 32.4566 22.5433 32.8254C22.7291 33.1943 23.1626 33.8704 23.4723 33.8704C23.7819 33.8704 23.5961 33.5631 23.72 33.5631C23.8438 33.5631 23.9677 33.9934 24.1535 34.2393C24.2773 34.4237 24.4631 34.5466 24.7109 34.6081C25.1444 35.1613 25.6398 35.7146 26.1352 36.2678L23.5961 38.7881C19.6946 34.854 17.4651 29.506 17.4032 23.8507ZM37.9019 18.7486L37.6541 18.8715C37.2826 19.0559 36.9729 19.2404 36.7252 19.4862L34.1861 16.9659C35.6724 15.675 37.5303 14.8759 39.4501 14.8145V18.3798C39.0166 18.4412 38.5831 18.5027 38.1496 18.6871C38.2734 18.4412 38.5211 18.1954 38.5211 18.1954C38.5211 18.1954 38.0876 18.4412 37.9019 18.7486ZM35.982 24.5883C35.982 24.6498 35.982 24.7113 35.982 24.7113C35.982 24.5883 35.9201 24.5269 35.8582 24.4039C35.7962 24.3424 35.7343 24.281 35.6724 24.281C35.6105 24.281 35.5485 24.281 35.4866 24.281H35.3627L35.2389 24.3424H34.3719C34.248 24.3424 34.1861 24.3424 34.1861 24.281C34.1241 24.0351 34.4957 24.2195 34.7434 23.4819C34.8054 23.4204 34.8054 23.2974 34.8673 23.236L34.9292 23.113L34.9912 23.0516L35.0531 22.9901C35.177 22.8671 35.3008 22.8671 35.4247 22.8671H35.5485L35.6724 22.9901L35.8582 23.3589C35.9201 23.4204 35.982 23.4204 35.982 23.4819C36.1059 23.5433 36.1678 23.6048 36.2298 23.6663L36.2917 23.7277V23.7892C36.3536 23.8507 36.3536 23.8507 36.4155 23.8507H36.4775C36.5394 23.8507 36.5394 23.8507 36.6013 23.8507H36.6633C36.7871 23.7892 36.7871 23.8507 36.849 23.8507V23.9121C36.849 23.9736 36.8491 23.9736 36.7871 24.0351C36.7871 24.0966 36.7252 24.0966 36.7252 24.158C36.6633 24.2195 36.6013 24.281 36.5394 24.281C36.4155 24.281 36.2917 24.2195 36.2298 24.2195C36.1678 24.2195 36.1059 24.2195 36.1059 24.281V24.5883M29.2936 30.4895C29.1079 30.1822 29.0459 29.7519 29.0459 29.3831C29.0459 29.0142 28.9221 28.6454 28.7363 28.3381C28.6743 28.0922 28.6124 27.8463 28.6124 27.6004C28.6124 27.1701 28.2408 27.293 28.2408 27.1701C28.2408 27.0472 28.5505 27.1701 28.5505 27.0472C28.5505 26.9242 28.1789 26.4325 27.8693 26.3095C27.5596 26.1866 27.6835 26.0022 27.6835 25.8177C27.6835 25.6333 27.6835 25.4489 27.5596 25.326C27.4977 25.0801 27.5596 24.6498 27.8693 24.6498C27.9931 24.6498 28.1789 24.7727 28.3647 24.6498C28.5505 24.5269 28.4266 24.158 28.4266 23.8507H30.1607C30.1607 24.0966 30.2226 24.4039 30.2226 24.6498C30.0987 24.7113 30.0368 24.8342 30.0987 24.8957C30.1607 24.9572 30.2226 25.0186 30.2845 24.9572C30.5942 26.7398 31.3992 28.3995 32.6378 29.7519L30.0987 32.2722C29.9129 32.0878 29.7271 31.8419 29.5414 31.596C29.5414 31.5345 29.5414 31.4731 29.5414 31.4116C29.5414 30.9813 29.2317 30.7354 29.1079 30.3666M26.8784 26.1866C26.6926 25.4489 26.6307 24.6498 26.5687 23.8507H28.0551C27.9312 24.0351 27.6215 24.2195 27.5596 24.4039C27.4977 24.5883 27.1261 25.203 27.3738 25.4489C27.9312 26.0636 27.25 26.3095 26.8784 26.1866ZM27.188 35.2843L26.8784 35.5916C26.7545 35.4687 26.5687 35.2843 26.4449 35.1613C26.6926 35.0384 26.9403 35.0999 27.188 35.2843ZM31.0277 19.4862C30.9657 19.4862 30.9657 19.5477 30.9038 19.5477C30.718 19.7321 30.2226 19.6707 30.2845 19.8551C30.3464 20.0395 31.647 19.4248 31.647 19.5477C31.647 19.6707 31.0896 19.8551 30.718 20.0395C30.3464 20.2239 30.2226 20.5312 29.6033 20.5312C29.2936 20.5312 29.1698 20.7771 29.0459 20.9615C28.8601 21.2074 28.7363 21.4533 28.6124 21.6992C28.6124 22.068 28.5505 22.4368 28.3647 22.8057H26.5687C26.6926 19.6707 27.9312 16.6586 30.0987 14.3227L32.6378 16.843C32.0185 17.7036 31.4612 18.5642 31.0277 19.4862ZM33.381 17.6421L35.6105 19.8551C35.5485 19.8551 35.4866 19.8551 35.3627 19.8551C35.115 19.8551 35.115 19.6707 34.9292 19.6707C34.5577 19.7321 34.4957 19.8551 34.4338 19.7936C34.1861 19.5477 33.8764 19.3633 33.5049 19.1789C33.0713 19.0559 32.6378 19.0559 32.2663 19.2404C32.2043 19.2404 32.2043 19.3018 32.1424 19.3018C32.5759 18.7486 33.0094 18.1954 33.381 17.6421ZM30.2845 22.1295C30.2845 22.3754 30.2226 22.6213 30.2226 22.8671H28.9221C28.8601 22.6827 28.9221 22.4983 29.0459 22.3139C29.1698 22.068 29.4794 21.9451 29.7891 22.0065C29.9129 22.0065 30.0987 22.068 30.2845 22.1295ZM31.3992 25.0186L31.5231 25.203C31.647 25.326 31.7708 25.4489 31.8947 25.3874C32.0185 25.326 32.3282 25.3874 32.3901 25.3874C32.5759 25.4489 32.6998 25.5719 32.8236 25.6948C32.9475 25.8792 33.1952 25.7563 33.381 25.8792C33.5668 26.0022 33.7526 26.1251 33.5049 26.248C33.2571 26.371 33.7526 26.6169 33.8145 26.6169C33.8764 26.6169 33.9384 26.4939 33.9384 26.3095C33.9384 26.248 34.0622 26.0022 34.248 26.0636C34.4338 26.1251 34.9912 26.8013 35.177 26.5554C35.3627 26.3095 35.2389 26.0022 35.3008 25.8792C35.3008 25.8177 35.3627 25.7563 35.4247 25.7563C35.6105 26.0636 35.7343 26.3095 35.982 26.5554L33.4429 29.0757C32.3901 27.9692 31.647 26.5554 31.3992 25.0186ZM33.381 16.2283L30.9038 13.708C33.2571 11.5565 36.2917 10.3271 39.4501 10.2041V13.7694C37.2206 13.8309 35.115 14.6915 33.381 16.2283ZM30.1607 12.9703L27.6215 10.45C30.8419 7.43794 35.0531 5.71675 39.4501 5.59381V9.15913C35.982 9.28207 32.6378 10.6344 30.1607 12.9703ZM29.4175 13.6465C27.0642 16.1668 25.7017 19.4248 25.5779 22.8671H21.986C22.1098 18.5027 23.8438 14.3227 26.8784 11.1262L29.4175 13.6465ZM25.5779 23.8507C25.5779 24.5269 25.6398 25.1416 25.7637 25.8177C25.7017 25.8177 25.7017 25.6333 25.5159 25.6948C25.3301 25.7563 24.6489 26.9242 24.3393 27.416C24.0916 27.8463 24.4631 28.7683 24.0916 29.0757C23.72 29.1986 23.3484 29.2601 22.9768 29.2601H22.9149C22.2956 27.5389 21.986 25.7563 21.924 23.9736L25.5779 23.8507ZM39.3882 45.7343C33.7526 45.6114 28.3647 43.3984 24.3393 39.5258L26.8784 37.0055C30.2845 40.2019 34.7434 42.0461 39.3882 42.169V45.7343ZM39.3882 41.1855C34.9912 41.0625 30.78 39.3413 27.5596 36.3293L27.9931 35.899C28.055 35.9604 28.1789 36.0219 28.3028 36.0834C28.5505 36.2063 28.8601 36.2678 29.1698 36.2063C29.4175 36.1449 29.9129 35.7146 30.2226 35.7146C30.5322 35.7146 31.0277 35.8375 31.3373 35.6531C31.647 35.4687 31.1515 34.854 30.9657 34.5466C30.9038 34.4851 30.9038 34.4237 30.8419 34.3622C33.2571 36.3907 36.3536 37.5587 39.512 37.6202L39.3882 41.1855ZM39.3882 36.5752C36.2298 36.4522 33.1952 35.2228 30.8419 33.0713L33.381 30.551C34.5577 31.596 35.982 32.3951 37.5922 32.764C37.0348 33.0098 36.7871 33.3787 36.849 33.686C36.911 33.9934 36.4775 34.1778 36.4775 34.5466C36.4775 34.9154 36.9729 35.1613 37.0348 35.5301C37.0968 35.7146 37.5303 36.0219 37.9019 36.2678C38.3973 36.3907 38.8927 36.4522 39.3262 36.3907L39.3882 36.5752ZM39.2643 31.6575C39.0785 31.5345 38.9547 31.7804 38.7069 31.9034C36.9729 31.6575 35.4247 30.9198 34.1241 29.8134L36.6633 27.293C37.4683 27.9078 38.3973 28.3381 39.3882 28.3995C39.3882 28.5225 39.512 28.6454 39.512 28.8913C39.512 29.1372 39.3262 29.2601 39.3882 29.3831C39.4501 29.506 40.0075 29.3831 40.0694 29.1986C40.1313 29.0142 39.8836 28.8913 39.8217 28.7069C39.7597 28.5839 39.7597 28.5225 39.6978 28.3995H39.8836C40.0694 28.3995 40.2552 28.3995 40.441 28.3381C40.5029 28.3381 40.5648 28.2766 40.5648 28.2151C40.5648 28.1536 40.6268 28.0922 40.6268 28.0307C40.6268 27.9692 40.6887 27.9692 40.6887 27.9078L40.7506 27.9692C40.8125 28.0922 40.9364 28.461 41.0603 28.3995C41.1841 28.3381 41.246 27.7848 41.1841 27.6619C41.0603 27.4775 41.0603 27.293 41.1841 27.1086C41.1841 27.0472 41.246 26.6783 41.3699 26.7398C41.4938 26.8013 41.3699 27.1086 41.3699 27.2316C41.3699 27.416 41.4938 27.6619 41.6796 27.5389C41.8034 27.4775 41.9273 27.293 42.0511 27.3545C42.175 27.416 41.7415 27.5389 41.6796 27.6619C41.6176 27.7848 41.8653 27.8463 41.8034 27.9078C41.7415 27.9692 41.6796 27.9078 41.6176 27.9692C41.5557 28.0307 41.7415 28.3995 41.6176 28.461C41.4938 28.5225 41.0603 28.6454 40.9364 28.7069C40.8125 28.7683 40.6887 28.6454 40.7506 28.5839C40.8125 28.5225 40.7506 28.2766 40.6268 28.2766C40.5029 28.2766 40.5029 28.3381 40.5029 28.461C40.5029 28.5839 40.6268 28.7684 40.6268 28.8298C40.6268 28.8913 40.441 28.9528 40.3171 29.0142C40.1932 29.1986 40.0075 29.3831 39.8217 29.506C39.6359 29.6289 39.2643 29.6289 39.2643 29.7519C39.2643 29.8748 39.4501 29.8748 39.512 29.9363C39.6359 30.1207 39.6978 30.3666 39.4501 30.4895C39.2024 30.6125 38.8927 30.3051 38.7689 30.3666C38.645 30.4281 38.5831 30.7354 38.5211 31.1042C38.4592 31.4731 39.2024 31.596 39.5739 31.4116C39.8217 31.2887 39.7597 30.9198 40.0075 30.7969C40.2552 30.6739 40.1932 30.4281 40.441 30.4895C40.6887 30.551 40.6268 30.3051 40.8745 30.3051C41.1222 30.3051 41.1222 30.4895 41.4318 30.551C41.9273 30.6739 41.9273 31.0428 41.9892 30.8584C42.0511 30.6739 42.1131 30.551 41.7415 30.4281C41.3699 30.3051 41.1841 29.8748 41.4938 29.9978C41.8653 30.1822 42.175 30.1822 42.2369 30.3666C42.2989 30.551 42.6704 30.4895 42.7324 30.6739C42.7943 30.9813 43.042 30.6739 42.8562 30.4895C42.6704 30.3051 42.7324 30.2437 42.8562 30.1207C42.9801 29.9978 43.042 30.1822 43.2278 29.9363C43.4136 29.6904 43.1659 29.7519 43.1039 29.6289C43.042 29.506 43.1039 28.8298 43.3517 28.9528C43.5994 29.0757 43.8471 28.8913 43.7232 28.8298C43.5994 28.7684 43.7852 28.3995 43.8471 28.3995C43.909 28.3995 43.8471 28.6454 43.909 28.7069C43.971 28.7683 44.5902 28.5225 44.6522 28.8298C44.7141 29.1372 44.2187 29.3216 44.0948 29.3216C43.8471 29.3216 43.6613 29.5675 43.4755 29.8134C43.2897 30.0592 43.1039 30.1207 43.2278 30.3666C43.3517 30.6125 43.5994 30.551 43.8471 30.4281C44.0948 30.3051 44.2806 30.1207 44.4045 30.0592C44.6522 29.9363 44.838 30.6739 44.7141 30.7969C44.5902 30.9198 44.3425 30.9813 44.2187 31.1042C43.8471 31.2887 43.4755 31.4731 43.042 31.4731C42.7943 31.5345 42.7943 31.596 42.7324 31.8419C42.6704 32.0878 41.5557 31.9034 41.308 31.9034C41.0603 31.9034 41.4938 31.3501 41.1222 31.4116C40.7506 31.4731 40.379 31.5345 40.0075 31.596C39.9455 31.596 39.5739 31.9034 39.2643 31.6575ZM42.5466 37.3743C42.8562 37.4972 43.1659 37.7431 43.3517 37.989C43.5374 38.2963 43.5994 38.4193 43.4755 38.7266C43.1659 39.2799 43.2897 39.6487 43.909 39.8331C44.2806 39.9561 44.4045 40.3249 44.6522 40.5708C43.2897 40.9396 41.8653 41.124 40.441 41.1855V37.6202C41.1222 37.5587 41.8653 37.4972 42.5466 37.3743ZM40.441 36.6366V36.2063C41.246 36.0834 41.0603 36.5752 41.6176 36.3907C41.8034 36.3293 41.9892 36.3907 42.1131 36.5137C41.5557 36.5137 40.9983 36.5752 40.441 36.6366ZM40.441 45.7958V42.169C42.2989 42.1075 44.1567 41.8002 45.9527 41.1855C46.0146 41.2469 46.0766 41.2469 46.1385 41.2469C46.3862 41.2469 46.6339 41.124 46.8197 41.0011C47.439 40.7552 47.9964 40.4478 48.4918 40.079C50.102 39.2799 51.6502 38.1734 52.9507 36.944L55.4898 39.4643C51.4644 43.3984 46.0766 45.6114 40.441 45.7958ZM50.4736 13.6465L51.3406 12.7859C51.5883 13.0318 51.836 13.2162 52.2076 13.2777C52.5172 13.3391 52.6411 13.4621 52.703 13.7694C52.7649 14.0768 53.0746 14.1997 53.3842 14.2612C53.6939 14.3227 53.8797 14.6915 54.1274 14.6915C54.3751 14.6915 55.1802 15.798 55.4898 16.1668C55.6756 16.3512 55.9234 16.6586 56.1091 16.4127C56.2949 16.1668 56.2949 16.2283 56.4188 16.1668C57.3477 18.2568 57.9051 20.5927 57.967 22.8671H54.3751C54.3751 22.068 54.2513 21.2689 54.0655 20.4698C54.1893 20.2239 54.2513 19.978 54.2513 19.6707C54.2513 19.4248 54.0035 19.3018 53.8178 19.4862C53.6939 18.9945 53.5081 18.5642 53.3223 18.1339C53.2604 17.888 53.1985 17.5806 53.1365 17.3348C53.1365 17.2733 53.0127 17.2118 52.8888 17.0889C52.7649 16.843 52.703 16.6586 52.5792 16.4742C52.7649 16.3512 52.8269 16.0439 52.5792 16.1053C52.2076 16.1668 52.4553 15.9209 52.3314 15.798C52.2076 15.675 52.2076 15.798 52.1457 15.8595C51.6502 15.1218 51.1548 14.4456 50.5355 13.7694C50.5355 13.7694 50.5355 13.7694 50.5355 13.708C50.4116 13.708 50.4116 13.6465 50.4736 13.6465ZM52.6411 34.4851C52.5172 34.2393 52.4553 33.9319 52.3314 33.686C52.2695 33.4401 51.7741 33.4401 51.7741 33.5631C51.7741 33.809 51.7741 34.0548 51.7121 34.3007V34.3622L50.4116 33.0713C52.7649 30.551 54.1274 27.293 54.2513 23.8507H57.8432C57.7193 28.2151 55.9853 32.3951 52.9507 35.5301L52.7649 35.3457C52.8269 35.0999 52.7649 34.7925 52.6411 34.4851ZM49.6685 36.944C49.8543 36.6366 50.2258 36.0834 50.4116 35.776C50.5974 35.4687 49.9162 35.0384 49.5446 34.9154C49.173 34.7925 49.173 34.6081 49.173 34.3007C49.3588 34.1778 49.5446 33.9934 49.7304 33.809L52.2695 36.3293C51.4025 37.1284 50.5355 37.8046 49.5446 38.4193C49.4827 38.2963 49.9162 37.866 50.0401 37.6816C50.1639 37.4972 49.5446 37.2513 49.6685 36.944ZM51.2167 22.2524C50.9071 21.8221 51.3406 21.7607 51.7741 21.5763C52.0218 21.4533 52.3314 21.6377 52.3314 21.5148C52.3314 21.3918 52.4553 21.146 52.5792 21.0845C52.703 21.023 52.8888 20.9001 52.9507 20.7771C52.9507 20.9001 53.0127 21.023 53.0127 21.146C52.8888 21.3918 52.8269 21.5763 52.8269 21.8221C52.8269 22.0065 52.8269 22.2524 53.0127 21.8221C53.0127 21.7607 53.0746 21.7607 53.0746 21.6992C53.1985 22.1295 53.1985 22.4983 53.1985 22.8671H50.5355C50.5355 22.8671 50.5355 22.8671 50.5355 22.8057C50.7213 22.4983 51.4025 22.5598 51.2167 22.2524ZM51.7121 17.2118C51.7121 17.2118 51.7121 17.2733 51.6502 17.2733C51.5883 17.3348 51.2786 16.843 51.2786 17.2118C51.2786 17.5806 51.4025 17.7036 51.6502 17.7651C51.8979 17.8265 51.7741 17.9495 51.9599 18.0109C52.0218 18.0109 52.1457 18.0724 52.2076 18.1339C52.5172 18.8101 52.703 19.4862 52.8888 20.2239C52.7649 20.2854 52.703 20.3468 52.6411 20.4083C52.5172 20.5312 52.5792 20.7771 52.4553 20.9615C52.2695 21.2689 52.2076 21.4533 51.7121 21.3304C51.4025 21.2074 51.6502 20.8386 51.7121 20.5312C51.7741 20.2239 51.8979 20.2854 51.8979 20.101C51.8979 19.9165 51.2786 19.2404 50.969 19.4862C50.6593 19.7321 50.7213 19.978 50.4736 20.2239C50.3497 20.3468 50.2258 20.3468 50.0401 20.2239C49.8543 20.101 49.7923 19.978 49.8543 19.8551C49.9162 19.7321 49.4208 19.1789 49.235 18.933C48.9872 18.6256 48.6157 18.4412 48.2441 18.4412C47.9344 17.888 47.5009 17.3348 47.0674 16.843L49.6065 14.3227C50.4736 15.2447 51.1548 16.1668 51.7121 17.2118ZM47.439 18.933L47.3151 19.1174C47.2532 19.2404 46.9436 18.9945 46.8816 19.0559C46.8197 19.1174 47.3151 19.7321 46.8197 19.5477C46.3243 19.3633 46.6339 19.3633 46.6339 19.1789C46.6339 18.9945 46.2004 18.8715 46.4481 18.7486C46.6959 18.6256 46.4481 18.4412 46.6959 18.3798C46.9436 18.3183 46.8816 18.0724 46.572 18.0109C46.2623 17.9495 46.3243 18.6871 46.1385 18.5642C45.9527 18.5027 45.7669 18.5027 45.5811 18.5027L46.4481 17.6421C46.572 17.7036 46.6339 17.7036 46.7578 17.7036C46.8816 18.1954 47.1913 18.5642 47.439 18.933ZM46.4481 31.4116C46.8197 31.4731 47.2532 31.5345 47.6248 31.6575C47.8725 31.7804 48.0583 32.0263 48.2441 31.719C48.6157 31.1657 48.8634 30.551 48.9872 29.8748C49.1111 28.9528 48.9253 28.6454 48.8015 28.6454C48.6776 28.6454 48.4299 28.8913 48.1822 28.8913C48.0583 28.8913 48.0583 29.1372 48.0583 29.3216C48.0583 29.506 47.8106 29.6904 47.7487 29.5675C47.6867 29.4445 47.5629 29.506 47.6248 29.6289C47.6867 29.7519 47.1294 29.6904 46.8816 29.5675C46.5101 29.3831 47.3151 29.3831 47.6867 29.0757C47.9964 28.8298 48.306 28.5225 48.6157 28.2151C48.8015 27.9078 48.8015 27.5389 49.1111 27.293C49.4208 27.0472 49.9162 27.1086 49.9781 26.7398C50.0401 26.371 50.102 26.4325 50.2878 26.4939C50.4736 26.5554 52.2076 26.4325 52.2076 25.8792C52.2076 25.6333 51.836 25.326 51.4644 25.2645C51.2167 25.2645 51.1548 24.7727 51.0309 24.5269C50.9071 24.281 50.7832 24.0351 50.5974 23.7892H53.1985C53.0746 26.9242 51.836 29.9363 49.6685 32.2722L49.6065 32.2107V31.9648C49.6685 31.4731 49.2969 30.6739 49.173 30.7969C49.0492 30.9198 49.173 30.9198 48.8015 31.4731C48.6776 31.6575 48.4918 31.9648 48.2441 31.9648C47.9964 31.9648 47.9964 31.8419 47.6248 31.9034C47.3151 31.9648 46.9436 31.9648 46.6339 31.9034C46.0766 31.719 45.5192 31.4731 44.9618 31.1042C45.0238 31.0428 45.2095 31.1657 45.2095 30.9813C45.2095 30.7969 46.2004 31.3501 46.4481 31.4116ZM56.1711 38.8496L53.632 36.3293C56.8523 32.9484 58.7102 28.5225 58.834 23.9121H62.4879C62.364 29.506 60.1346 34.7925 56.1711 38.8496ZM62.4879 22.8671H58.834C58.7721 20.2239 58.1528 17.6421 56.9762 15.2447L57.0381 15.1833C57.2858 14.9374 55.8614 13.0933 55.6137 12.9089C55.366 12.7244 55.1183 12.4171 54.8086 12.1097C54.3132 11.618 53.8178 11.0647 53.4462 10.5115L56.1091 7.86824C60.1346 11.9253 62.364 17.2733 62.4879 22.8671ZM40.441 0.983495C46.0766 1.10644 51.4644 3.31939 55.5518 7.19206L53.0746 9.65089C52.9507 9.58942 52.8269 9.52795 52.8888 9.40501C53.0127 9.2206 52.703 9.2206 52.6411 8.72883C52.5172 8.23706 52.1457 7.80677 51.7121 7.56088C51.4025 7.37647 51.2167 7.13059 50.9071 7.00764C50.5974 6.8847 49.9781 6.51588 49.6685 6.63882C49.4827 6.70029 49.235 6.76176 49.0492 6.76176C46.3862 5.34793 43.4755 4.61028 40.5029 4.54881L40.441 0.983495ZM40.441 5.59381C43.1039 5.65528 45.643 6.33146 48.0583 7.49941C48.1202 7.86824 48.306 8.29853 48.5537 8.60589C48.6776 8.91324 48.8634 9.15913 49.0492 9.46648C49.235 9.65089 49.1111 10.0197 49.173 10.3271C49.173 10.45 49.2969 10.573 49.3588 10.6959C49.3588 10.8803 49.3588 11.0033 49.3588 11.1877C49.3588 11.2491 49.6065 11.2491 49.7923 11.1262C49.9781 11.0033 50.102 10.7574 50.3497 10.8188C50.5974 10.8803 50.9071 11.3721 51.0928 11.6794L49.9162 12.8474C49.7923 12.6015 49.6685 12.2941 49.7304 12.2941C49.7923 12.2941 49.9162 12.3556 49.9781 12.3556C50.2258 12.3556 49.7923 12.1712 49.7923 12.1097C49.6065 11.9253 49.6065 11.6794 49.3588 11.495C49.1111 11.3106 48.7395 11.4336 48.6157 11.1877C48.368 10.7574 48.0583 10.3885 47.6248 10.0812C47.5629 10.0812 48.1202 10.7574 47.9344 10.8803C47.7487 11.0033 47.0674 10.45 47.0055 10.573C46.9436 10.6959 47.7487 11.0033 47.9964 11.2491C48.1202 11.3721 48.368 11.7409 48.6157 12.0483C46.2623 10.2656 43.4136 9.28207 40.441 9.15913V5.59381ZM40.441 10.1427C43.5994 10.2656 46.6339 11.495 48.9872 13.6465L46.4481 16.1668C44.776 14.6915 42.6704 13.8309 40.441 13.708V10.1427ZM40.441 14.753C42.4227 14.8759 44.2806 15.6136 45.705 16.9045L45.5811 17.0274L45.4573 16.9659C45.1476 16.843 44.5283 17.4577 44.6522 17.5192C44.776 17.5806 45.0238 17.2733 45.1476 17.3348H45.2095L44.1567 18.4412C43.8471 18.5642 43.5374 18.8101 43.5374 18.9945C43.5374 18.9945 43.5374 18.9945 43.5374 19.0559L43.1659 19.4248L42.9801 19.2404C42.6704 18.9945 42.3608 18.8101 41.9892 18.6871C42.175 18.5642 42.2369 18.3798 42.2989 18.1339C42.2989 17.7651 42.175 17.888 41.9892 18.0724C41.8034 18.2568 41.6176 18.3183 41.4938 18.5027C41.1841 18.3798 40.8125 18.3183 40.5029 18.3183V14.753H40.441ZM40.0075 19.3018C40.0694 19.4248 40.0075 19.5477 39.9455 19.6092C39.8217 19.7321 39.4501 19.3018 39.3882 19.6707C39.2643 20.0395 39.6359 19.8551 39.6359 19.9165C39.8217 20.1624 40.0694 20.2854 40.379 20.3468C40.6268 20.3468 40.9983 20.3468 40.9983 20.5927C40.9983 20.7157 41.308 20.7157 41.3699 20.8386C41.3699 21.023 41.5557 21.3304 41.6796 21.2689C41.8034 21.2074 41.9892 21.3304 42.0511 21.4533C42.1131 21.5763 42.0511 21.6377 41.9892 21.7607C41.8034 21.9451 42.175 21.8836 42.2369 22.2524C42.2989 22.6213 41.9273 22.3754 41.8653 22.6213C41.7415 22.8057 41.6176 22.9286 41.4938 23.113C41.4318 23.1745 41.5557 23.2974 41.6176 23.236C41.6796 23.1745 41.8034 22.9901 41.9892 22.9901C42.175 22.9901 42.3608 23.6663 42.5466 23.7277C42.7324 23.7892 42.6704 24.0351 42.7324 24.0966C42.7943 24.158 42.4227 24.0966 42.4846 24.2195C42.5466 24.3424 42.9181 24.4039 42.9181 24.5883C42.8562 24.7727 42.7324 24.9572 42.4846 24.9572C42.2989 24.9572 41.9892 24.5269 41.9892 24.6498C41.9892 24.7727 42.1131 25.1416 42.2989 25.1416C42.4846 25.1416 42.9181 24.9572 42.7324 25.203C42.5466 25.4489 42.6085 25.8177 42.4846 25.8177C42.3608 25.8177 42.2989 25.8177 42.4227 26.0022C42.4846 26.1866 42.4227 26.371 42.2989 26.5554C42.175 26.6783 41.8653 26.5554 41.8653 26.4939C41.8653 26.4325 42.2369 26.4325 42.2369 26.248C42.2369 26.0636 42.0511 26.0022 41.6796 26.1251C41.4938 26.1866 41.4318 26.0636 41.308 26.0636C41.1841 26.0636 40.8125 26.4939 40.8125 26.5554C40.8125 26.6169 40.8125 26.7398 40.8125 26.8628C40.8125 27.1086 40.7506 27.293 40.6268 27.4775C40.379 27.5389 40.1932 27.5389 39.9455 27.5389C38.9547 27.5389 37.9638 27.1086 37.2206 26.4939C37.3445 26.4325 37.5303 26.371 37.7161 26.371C37.9019 26.4325 37.9638 26.3095 38.0876 26.248C38.2115 26.1866 38.5211 26.371 38.7069 26.248C38.8927 26.1251 39.3262 25.326 39.2643 25.1416C39.2024 24.9572 39.6978 24.6498 39.6359 24.5883C39.5739 24.5269 39.512 24.6498 39.512 24.5883C39.512 24.5269 39.6359 24.5269 39.512 24.281C39.3882 24.0351 39.2024 24.158 39.0785 24.158C38.8927 24.0351 38.5831 23.9736 38.5211 24.0351C38.4592 24.0966 38.2734 23.9121 38.2115 23.9736C38.1496 23.9736 38.0257 24.0351 38.0257 24.158C37.9638 24.281 38.0876 24.4039 38.0876 24.5269C38.0257 24.7727 37.6541 24.9572 37.6541 25.1416C37.6541 25.326 37.4683 25.203 37.4064 25.2645C37.3445 25.326 37.4064 25.4489 37.2826 25.4489C37.1587 25.4489 36.9729 25.7563 36.849 26.0022C36.6633 25.7563 36.4775 25.4489 36.2917 25.203C36.4155 25.1416 36.5394 25.0801 36.6013 25.1416C36.7871 25.2645 37.5303 23.9736 37.4064 23.6048C37.2826 23.236 37.0968 23.4818 36.911 23.5433C36.7252 23.6048 36.7252 23.4204 36.7871 23.3589C36.8491 23.2974 37.6541 23.2974 37.2206 23.0516C37.0348 22.9286 36.5394 22.9286 36.6013 22.7442C36.6633 22.5598 36.911 22.7442 36.9729 22.7442C37.2826 22.8671 37.4683 22.2524 37.6541 22.2524C37.9638 22.2524 37.8399 21.6377 37.5303 21.8221C37.2206 22.0065 37.0968 21.9451 36.9729 22.1295C36.849 22.3139 36.5394 22.5598 36.5394 22.3139C36.5394 22.191 37.2206 21.8221 37.3445 21.6377C37.4683 21.5148 37.5922 21.3304 37.6541 21.146C37.7161 20.9615 38.5831 20.8386 38.7689 20.7157C38.8927 20.5927 39.0166 20.4083 39.0166 20.2239C39.0166 20.0395 38.7689 20.101 38.7069 19.978C38.645 19.8551 39.0166 19.978 39.0166 19.7936C39.0166 19.6092 38.7069 19.7936 38.5831 19.6707C38.5831 19.6092 38.5831 19.6092 38.645 19.5477C39.2024 19.3633 39.574 19.3018 40.0075 19.3018H40.1313H40.0075ZM39.4501 0.983495V4.54881C34.8054 4.67175 30.3464 6.51588 26.9403 9.71237L24.4012 7.19206C28.4266 3.31939 33.8145 1.10644 39.4501 0.983495ZM23.5961 7.92971L26.1352 10.45C22.9149 13.8309 21.057 18.2568 20.9331 22.8671H17.3412C17.527 17.2733 19.7565 11.9253 23.5961 7.92971Z" fill="white"/>
</g>
<defs>
<clipPath id="clip0_220_1631">
<rect width="197" height="56" fill="white"/>
</clipPath>
</defs>
</svg>
